<?xml version="1.0" encoding="utf-8" standalone="no"?>
<!DOCTYPE svg PUBLIC "-//W3C//DTD SVG 1.1//EN"
  "http://www.w3.org/Graphics/SVG/1.1/DTD/svg11.dtd">
<!-- Created with matplotlib (http://matplotlib.org/) -->
<svg height="345pt" version="1.1" viewBox="0 0 460 345" width="460pt" xmlns="http://www.w3.org/2000/svg" xmlns:xlink="http://www.w3.org/1999/xlink">
 <defs>
  <style type="text/css">
*{stroke-linecap:butt;stroke-linejoin:round;}
  </style>
 </defs>
 <g id="figure_1">
  <g id="patch_1">
   <path d="M 0 345.6 
L 460.8 345.6 
L 460.8 0 
L 0 0 
z
" style="fill:#ffffff;"/>
  </g>
  <g id="axes_1">
   <g id="patch_2">
    <path d="M 57.6 307.584 
L 414.72 307.584 
L 414.72 41.472 
L 57.6 41.472 
z
" style="fill:#ffffff;"/>
   </g>
   <g id="matplotlib.axis_1">
    <g id="xtick_1">
     <g id="line2d_1">
      <path clip-path="url(#p5b191c3ae7)" d="M 71.104538 307.584 
L 71.104538 41.472 
" style="fill:none;stroke:#b0b0b0;stroke-linecap:square;stroke-width:0.8;"/>
     </g>
     <g id="line2d_2">
      <defs>
       <path d="M 0 0 
L 0 3.5 
" id="m59ee759d36" style="stroke:#000000;stroke-width:0.8;"/>
      </defs>
      <g>
       <use style="stroke:#000000;stroke-width:0.8;" x="71.104538" xlink:href="#m59ee759d36" y="307.584"/>
      </g>
     </g>
     <g id="text_1">
      <!-- 0 -->
      <defs>
       <path d="M 31.78125 66.40625 
Q 24.171875 66.40625 20.328125 58.90625 
Q 16.5 51.421875 16.5 36.375 
Q 16.5 21.390625 20.328125 13.890625 
Q 24.171875 6.390625 31.78125 6.390625 
Q 39.453125 6.390625 43.28125 13.890625 
Q 47.125 21.390625 47.125 36.375 
Q 47.125 51.421875 43.28125 58.90625 
Q 39.453125 66.40625 31.78125 66.40625 
z
M 31.78125 74.21875 
Q 44.046875 74.21875 50.515625 64.515625 
Q 56.984375 54.828125 56.984375 36.375 
Q 56.984375 17.96875 50.515625 8.265625 
Q 44.046875 -1.421875 31.78125 -1.421875 
Q 19.53125 -1.421875 13.0625 8.265625 
Q 6.59375 17.96875 6.59375 36.375 
Q 6.59375 54.828125 13.0625 64.515625 
Q 19.53125 74.21875 31.78125 74.21875 
z
" id="DejaVuSans-30"/>
      </defs>
      <g transform="translate(67.923288 322.182437)scale(0.1 -0.1)">
       <use xlink:href="#DejaVuSans-30"/>
      </g>
     </g>
    </g>
    <g id="xtick_2">
     <g id="line2d_3">
      <path clip-path="url(#p5b191c3ae7)" d="M 125.668327 307.584 
L 125.668327 41.472 
" style="fill:none;stroke:#b0b0b0;stroke-linecap:square;stroke-width:0.8;"/>
     </g>
     <g id="line2d_4">
      <g>
       <use style="stroke:#000000;stroke-width:0.8;" x="125.668327" xlink:href="#m59ee759d36" y="307.584"/>
      </g>
     </g>
     <g id="text_2">
      <!-- 5 -->
      <defs>
       <path d="M 10.796875 72.90625 
L 49.515625 72.90625 
L 49.515625 64.59375 
L 19.828125 64.59375 
L 19.828125 46.734375 
Q 21.96875 47.46875 24.109375 47.828125 
Q 26.265625 48.1875 28.421875 48.1875 
Q 40.625 48.1875 47.75 41.5 
Q 54.890625 34.8125 54.890625 23.390625 
Q 54.890625 11.625 47.5625 5.09375 
Q 40.234375 -1.421875 26.90625 -1.421875 
Q 22.3125 -1.421875 17.546875 -0.640625 
Q 12.796875 0.140625 7.71875 1.703125 
L 7.71875 11.625 
Q 12.109375 9.234375 16.796875 8.0625 
Q 21.484375 6.890625 26.703125 6.890625 
Q 35.15625 6.890625 40.078125 11.328125 
Q 45.015625 15.765625 45.015625 23.390625 
Q 45.015625 31 40.078125 35.4375 
Q 35.15625 39.890625 26.703125 39.890625 
Q 22.75 39.890625 18.8125 39.015625 
Q 14.890625 38.140625 10.796875 36.28125 
z
" id="DejaVuSans-35"/>
      </defs>
      <g transform="translate(122.487077 322.182437)scale(0.1 -0.1)">
       <use xlink:href="#DejaVuSans-35"/>
      </g>
     </g>
    </g>
    <g id="xtick_3">
     <g id="line2d_5">
      <path clip-path="url(#p5b191c3ae7)" d="M 180.232116 307.584 
L 180.232116 41.472 
" style="fill:none;stroke:#b0b0b0;stroke-linecap:square;stroke-width:0.8;"/>
     </g>
     <g id="line2d_6">
      <g>
       <use style="stroke:#000000;stroke-width:0.8;" x="180.232116" xlink:href="#m59ee759d36" y="307.584"/>
      </g>
     </g>
     <g id="text_3">
      <!-- 10 -->
      <defs>
       <path d="M 12.40625 8.296875 
L 28.515625 8.296875 
L 28.515625 63.921875 
L 10.984375 60.40625 
L 10.984375 69.390625 
L 28.421875 72.90625 
L 38.28125 72.90625 
L 38.28125 8.296875 
L 54.390625 8.296875 
L 54.390625 0 
L 12.40625 0 
z
" id="DejaVuSans-31"/>
      </defs>
      <g transform="translate(173.869616 322.182437)scale(0.1 -0.1)">
       <use xlink:href="#DejaVuSans-31"/>
       <use x="63.623047" xlink:href="#DejaVuSans-30"/>
      </g>
     </g>
    </g>
    <g id="xtick_4">
     <g id="line2d_7">
      <path clip-path="url(#p5b191c3ae7)" d="M 234.795905 307.584 
L 234.795905 41.472 
" style="fill:none;stroke:#b0b0b0;stroke-linecap:square;stroke-width:0.8;"/>
     </g>
     <g id="line2d_8">
      <g>
       <use style="stroke:#000000;stroke-width:0.8;" x="234.795905" xlink:href="#m59ee759d36" y="307.584"/>
      </g>
     </g>
     <g id="text_4">
      <!-- 15 -->
      <g transform="translate(228.433405 322.182437)scale(0.1 -0.1)">
       <use xlink:href="#DejaVuSans-31"/>
       <use x="63.623047" xlink:href="#DejaVuSans-35"/>
      </g>
     </g>
    </g>
    <g id="xtick_5">
     <g id="line2d_9">
      <path clip-path="url(#p5b191c3ae7)" d="M 289.359694 307.584 
L 289.359694 41.472 
" style="fill:none;stroke:#b0b0b0;stroke-linecap:square;stroke-width:0.8;"/>
     </g>
     <g id="line2d_10">
      <g>
       <use style="stroke:#000000;stroke-width:0.8;" x="289.359694" xlink:href="#m59ee759d36" y="307.584"/>
      </g>
     </g>
     <g id="text_5">
      <!-- 20 -->
      <defs>
       <path d="M 19.1875 8.296875 
L 53.609375 8.296875 
L 53.609375 0 
L 7.328125 0 
L 7.328125 8.296875 
Q 12.9375 14.109375 22.625 23.890625 
Q 32.328125 33.6875 34.8125 36.53125 
Q 39.546875 41.84375 41.421875 45.53125 
Q 43.3125 49.21875 43.3125 52.78125 
Q 43.3125 58.59375 39.234375 62.25 
Q 35.15625 65.921875 28.609375 65.921875 
Q 23.96875 65.921875 18.8125 64.3125 
Q 13.671875 62.703125 7.8125 59.421875 
L 7.8125 69.390625 
Q 13.765625 71.78125 18.9375 73 
Q 24.125 74.21875 28.421875 74.21875 
Q 39.75 74.21875 46.484375 68.546875 
Q 53.21875 62.890625 53.21875 53.421875 
Q 53.21875 48.921875 51.53125 44.890625 
Q 49.859375 40.875 45.40625 35.40625 
Q 44.1875 33.984375 37.640625 27.21875 
Q 31.109375 20.453125 19.1875 8.296875 
z
" id="DejaVuSans-32"/>
      </defs>
      <g transform="translate(282.997194 322.182437)scale(0.1 -0.1)">
       <use xlink:href="#DejaVuSans-32"/>
       <use x="63.623047" xlink:href="#DejaVuSans-30"/>
      </g>
     </g>
    </g>
    <g id="xtick_6">
     <g id="line2d_11">
      <path clip-path="url(#p5b191c3ae7)" d="M 343.923484 307.584 
L 343.923484 41.472 
" style="fill:none;stroke:#b0b0b0;stroke-linecap:square;stroke-width:0.8;"/>
     </g>
     <g id="line2d_12">
      <g>
       <use style="stroke:#000000;stroke-width:0.8;" x="343.923484" xlink:href="#m59ee759d36" y="307.584"/>
      </g>
     </g>
     <g id="text_6">
      <!-- 25 -->
      <g transform="translate(337.560984 322.182437)scale(0.1 -0.1)">
       <use xlink:href="#DejaVuSans-32"/>
       <use x="63.623047" xlink:href="#DejaVuSans-35"/>
      </g>
     </g>
    </g>
    <g id="xtick_7">
     <g id="line2d_13">
      <path clip-path="url(#p5b191c3ae7)" d="M 398.487273 307.584 
L 398.487273 41.472 
" style="fill:none;stroke:#b0b0b0;stroke-linecap:square;stroke-width:0.8;"/>
     </g>
     <g id="line2d_14">
      <g>
       <use style="stroke:#000000;stroke-width:0.8;" x="398.487273" xlink:href="#m59ee759d36" y="307.584"/>
      </g>
     </g>
     <g id="text_7">
      <!-- 30 -->
      <defs>
       <path d="M 40.578125 39.3125 
Q 47.65625 37.796875 51.625 33 
Q 55.609375 28.21875 55.609375 21.1875 
Q 55.609375 10.40625 48.1875 4.484375 
Q 40.765625 -1.421875 27.09375 -1.421875 
Q 22.515625 -1.421875 17.65625 -0.515625 
Q 12.796875 0.390625 7.625 2.203125 
L 7.625 11.71875 
Q 11.71875 9.328125 16.59375 8.109375 
Q 21.484375 6.890625 26.8125 6.890625 
Q 36.078125 6.890625 40.9375 10.546875 
Q 45.796875 14.203125 45.796875 21.1875 
Q 45.796875 27.640625 41.28125 31.265625 
Q 36.765625 34.90625 28.71875 34.90625 
L 20.21875 34.90625 
L 20.21875 43.015625 
L 29.109375 43.015625 
Q 36.375 43.015625 40.234375 45.921875 
Q 44.09375 48.828125 44.09375 54.296875 
Q 44.09375 59.90625 40.109375 62.90625 
Q 36.140625 65.921875 28.71875 65.921875 
Q 24.65625 65.921875 20.015625 65.03125 
Q 15.375 64.15625 9.8125 62.3125 
L 9.8125 71.09375 
Q 15.4375 72.65625 20.34375 73.4375 
Q 25.25 74.21875 29.59375 74.21875 
Q 40.828125 74.21875 47.359375 69.109375 
Q 53.90625 64.015625 53.90625 55.328125 
Q 53.90625 49.265625 50.4375 45.09375 
Q 46.96875 40.921875 40.578125 39.3125 
z
" id="DejaVuSans-33"/>
      </defs>
      <g transform="translate(392.124773 322.182437)scale(0.1 -0.1)">
       <use xlink:href="#DejaVuSans-33"/>
       <use x="63.623047" xlink:href="#DejaVuSans-30"/>
      </g>
     </g>
    </g>
    <g id="text_8">
     <!-- Time [s] -->
     <defs>
      <path d="M -0.296875 72.90625 
L 61.375 72.90625 
L 61.375 64.59375 
L 35.5 64.59375 
L 35.5 0 
L 25.59375 0 
L 25.59375 64.59375 
L -0.296875 64.59375 
z
" id="DejaVuSans-54"/>
      <path d="M 9.421875 54.6875 
L 18.40625 54.6875 
L 18.40625 0 
L 9.421875 0 
z
M 9.421875 75.984375 
L 18.40625 75.984375 
L 18.40625 64.59375 
L 9.421875 64.59375 
z
" id="DejaVuSans-69"/>
      <path d="M 52 44.1875 
Q 55.375 50.25 60.0625 53.125 
Q 64.75 56 71.09375 56 
Q 79.640625 56 84.28125 50.015625 
Q 88.921875 44.046875 88.921875 33.015625 
L 88.921875 0 
L 79.890625 0 
L 79.890625 32.71875 
Q 79.890625 40.578125 77.09375 44.375 
Q 74.3125 48.1875 68.609375 48.1875 
Q 61.625 48.1875 57.5625 43.546875 
Q 53.515625 38.921875 53.515625 30.90625 
L 53.515625 0 
L 44.484375 0 
L 44.484375 32.71875 
Q 44.484375 40.625 41.703125 44.40625 
Q 38.921875 48.1875 33.109375 48.1875 
Q 26.21875 48.1875 22.15625 43.53125 
Q 18.109375 38.875 18.109375 30.90625 
L 18.109375 0 
L 9.078125 0 
L 9.078125 54.6875 
L 18.109375 54.6875 
L 18.109375 46.1875 
Q 21.1875 51.21875 25.484375 53.609375 
Q 29.78125 56 35.6875 56 
Q 41.65625 56 45.828125 52.96875 
Q 50 49.953125 52 44.1875 
z
" id="DejaVuSans-6d"/>
      <path d="M 56.203125 29.59375 
L 56.203125 25.203125 
L 14.890625 25.203125 
Q 15.484375 15.921875 20.484375 11.0625 
Q 25.484375 6.203125 34.421875 6.203125 
Q 39.59375 6.203125 44.453125 7.46875 
Q 49.3125 8.734375 54.109375 11.28125 
L 54.109375 2.78125 
Q 49.265625 0.734375 44.1875 -0.34375 
Q 39.109375 -1.421875 33.890625 -1.421875 
Q 20.796875 -1.421875 13.15625 6.1875 
Q 5.515625 13.8125 5.515625 26.8125 
Q 5.515625 40.234375 12.765625 48.109375 
Q 20.015625 56 32.328125 56 
Q 43.359375 56 49.78125 48.890625 
Q 56.203125 41.796875 56.203125 29.59375 
z
M 47.21875 32.234375 
Q 47.125 39.59375 43.09375 43.984375 
Q 39.0625 48.390625 32.421875 48.390625 
Q 24.90625 48.390625 20.390625 44.140625 
Q 15.875 39.890625 15.1875 32.171875 
z
" id="DejaVuSans-65"/>
      <path id="DejaVuSans-20"/>
      <path d="M 8.59375 75.984375 
L 29.296875 75.984375 
L 29.296875 69 
L 17.578125 69 
L 17.578125 -6.203125 
L 29.296875 -6.203125 
L 29.296875 -13.1875 
L 8.59375 -13.1875 
z
" id="DejaVuSans-5b"/>
      <path d="M 44.28125 53.078125 
L 44.28125 44.578125 
Q 40.484375 46.53125 36.375 47.5 
Q 32.28125 48.484375 27.875 48.484375 
Q 21.1875 48.484375 17.84375 46.4375 
Q 14.5 44.390625 14.5 40.28125 
Q 14.5 37.15625 16.890625 35.375 
Q 19.28125 33.59375 26.515625 31.984375 
L 29.59375 31.296875 
Q 39.15625 29.25 43.1875 25.515625 
Q 47.21875 21.78125 47.21875 15.09375 
Q 47.21875 7.46875 41.1875 3.015625 
Q 35.15625 -1.421875 24.609375 -1.421875 
Q 20.21875 -1.421875 15.453125 -0.5625 
Q 10.6875 0.296875 5.421875 2 
L 5.421875 11.28125 
Q 10.40625 8.6875 15.234375 7.390625 
Q 20.0625 6.109375 24.8125 6.109375 
Q 31.15625 6.109375 34.5625 8.28125 
Q 37.984375 10.453125 37.984375 14.40625 
Q 37.984375 18.0625 35.515625 20.015625 
Q 33.0625 21.96875 24.703125 23.78125 
L 21.578125 24.515625 
Q 13.234375 26.265625 9.515625 29.90625 
Q 5.8125 33.546875 5.8125 39.890625 
Q 5.8125 47.609375 11.28125 51.796875 
Q 16.75 56 26.8125 56 
Q 31.78125 56 36.171875 55.265625 
Q 40.578125 54.546875 44.28125 53.078125 
z
" id="DejaVuSans-73"/>
      <path d="M 30.421875 75.984375 
L 30.421875 -13.1875 
L 9.71875 -13.1875 
L 9.71875 -6.203125 
L 21.390625 -6.203125 
L 21.390625 69 
L 9.71875 69 
L 9.71875 75.984375 
z
" id="DejaVuSans-5d"/>
     </defs>
     <g transform="translate(215.677188 335.860562)scale(0.1 -0.1)">
      <use xlink:href="#DejaVuSans-54"/>
      <use x="61.037109" xlink:href="#DejaVuSans-69"/>
      <use x="88.820312" xlink:href="#DejaVuSans-6d"/>
      <use x="186.232422" xlink:href="#DejaVuSans-65"/>
      <use x="247.755859" xlink:href="#DejaVuSans-20"/>
      <use x="279.542969" xlink:href="#DejaVuSans-5b"/>
      <use x="318.556641" xlink:href="#DejaVuSans-73"/>
      <use x="370.65625" xlink:href="#DejaVuSans-5d"/>
     </g>
    </g>
   </g>
   <g id="matplotlib.axis_2">
    <g id="ytick_1">
     <g id="line2d_15">
      <path clip-path="url(#p5b191c3ae7)" d="M 57.6 282.545552 
L 414.72 282.545552 
" style="fill:none;stroke:#b0b0b0;stroke-linecap:square;stroke-width:0.8;"/>
     </g>
     <g id="line2d_16">
      <defs>
       <path d="M 0 0 
L -3.5 0 
" id="m5e35a98cc8" style="stroke:#000000;stroke-width:0.8;"/>
      </defs>
      <g>
       <use style="stroke:#000000;stroke-width:0.8;" x="57.6" xlink:href="#m5e35a98cc8" y="282.545552"/>
      </g>
     </g>
     <g id="text_9">
      <!-- −1.0 -->
      <defs>
       <path d="M 10.59375 35.5 
L 73.1875 35.5 
L 73.1875 27.203125 
L 10.59375 27.203125 
z
" id="DejaVuSans-2212"/>
       <path d="M 10.6875 12.40625 
L 21 12.40625 
L 21 0 
L 10.6875 0 
z
" id="DejaVuSans-2e"/>
      </defs>
      <g transform="translate(26.317187 286.344771)scale(0.1 -0.1)">
       <use xlink:href="#DejaVuSans-2212"/>
       <use x="83.789062" xlink:href="#DejaVuSans-31"/>
       <use x="147.412109" xlink:href="#DejaVuSans-2e"/>
       <use x="179.199219" xlink:href="#DejaVuSans-30"/>
      </g>
     </g>
    </g>
    <g id="ytick_2">
     <g id="line2d_17">
      <path clip-path="url(#p5b191c3ae7)" d="M 57.6 223.825389 
L 414.72 223.825389 
" style="fill:none;stroke:#b0b0b0;stroke-linecap:square;stroke-width:0.8;"/>
     </g>
     <g id="line2d_18">
      <g>
       <use style="stroke:#000000;stroke-width:0.8;" x="57.6" xlink:href="#m5e35a98cc8" y="223.825389"/>
      </g>
     </g>
     <g id="text_10">
      <!-- −0.5 -->
      <g transform="translate(26.317187 227.624608)scale(0.1 -0.1)">
       <use xlink:href="#DejaVuSans-2212"/>
       <use x="83.789062" xlink:href="#DejaVuSans-30"/>
       <use x="147.412109" xlink:href="#DejaVuSans-2e"/>
       <use x="179.199219" xlink:href="#DejaVuSans-35"/>
      </g>
     </g>
    </g>
    <g id="ytick_3">
     <g id="line2d_19">
      <path clip-path="url(#p5b191c3ae7)" d="M 57.6 165.105227 
L 414.72 165.105227 
" style="fill:none;stroke:#b0b0b0;stroke-linecap:square;stroke-width:0.8;"/>
     </g>
     <g id="line2d_20">
      <g>
       <use style="stroke:#000000;stroke-width:0.8;" x="57.6" xlink:href="#m5e35a98cc8" y="165.105227"/>
      </g>
     </g>
     <g id="text_11">
      <!-- 0.0 -->
      <g transform="translate(34.696875 168.904446)scale(0.1 -0.1)">
       <use xlink:href="#DejaVuSans-30"/>
       <use x="63.623047" xlink:href="#DejaVuSans-2e"/>
       <use x="95.410156" xlink:href="#DejaVuSans-30"/>
      </g>
     </g>
    </g>
    <g id="ytick_4">
     <g id="line2d_21">
      <path clip-path="url(#p5b191c3ae7)" d="M 57.6 106.385065 
L 414.72 106.385065 
" style="fill:none;stroke:#b0b0b0;stroke-linecap:square;stroke-width:0.8;"/>
     </g>
     <g id="line2d_22">
      <g>
       <use style="stroke:#000000;stroke-width:0.8;" x="57.6" xlink:href="#m5e35a98cc8" y="106.385065"/>
      </g>
     </g>
     <g id="text_12">
      <!-- 0.5 -->
      <g transform="translate(34.696875 110.184284)scale(0.1 -0.1)">
       <use xlink:href="#DejaVuSans-30"/>
       <use x="63.623047" xlink:href="#DejaVuSans-2e"/>
       <use x="95.410156" xlink:href="#DejaVuSans-35"/>
      </g>
     </g>
    </g>
    <g id="ytick_5">
     <g id="line2d_23">
      <path clip-path="url(#p5b191c3ae7)" d="M 57.6 47.664902 
L 414.72 47.664902 
" style="fill:none;stroke:#b0b0b0;stroke-linecap:square;stroke-width:0.8;"/>
     </g>
     <g id="line2d_24">
      <g>
       <use style="stroke:#000000;stroke-width:0.8;" x="57.6" xlink:href="#m5e35a98cc8" y="47.664902"/>
      </g>
     </g>
     <g id="text_13">
      <!-- 1.0 -->
      <g transform="translate(34.696875 51.464121)scale(0.1 -0.1)">
       <use xlink:href="#DejaVuSans-31"/>
       <use x="63.623047" xlink:href="#DejaVuSans-2e"/>
       <use x="95.410156" xlink:href="#DejaVuSans-30"/>
      </g>
     </g>
    </g>
    <g id="text_14">
     <!-- Acceleration [m/s^2] -->
     <defs>
      <path d="M 34.1875 63.1875 
L 20.796875 26.90625 
L 47.609375 26.90625 
z
M 28.609375 72.90625 
L 39.796875 72.90625 
L 67.578125 0 
L 57.328125 0 
L 50.6875 18.703125 
L 17.828125 18.703125 
L 11.1875 0 
L 0.78125 0 
z
" id="DejaVuSans-41"/>
      <path d="M 48.78125 52.59375 
L 48.78125 44.1875 
Q 44.96875 46.296875 41.140625 47.34375 
Q 37.3125 48.390625 33.40625 48.390625 
Q 24.65625 48.390625 19.8125 42.84375 
Q 14.984375 37.3125 14.984375 27.296875 
Q 14.984375 17.28125 19.8125 11.734375 
Q 24.65625 6.203125 33.40625 6.203125 
Q 37.3125 6.203125 41.140625 7.25 
Q 44.96875 8.296875 48.78125 10.40625 
L 48.78125 2.09375 
Q 45.015625 0.34375 40.984375 -0.53125 
Q 36.96875 -1.421875 32.421875 -1.421875 
Q 20.0625 -1.421875 12.78125 6.34375 
Q 5.515625 14.109375 5.515625 27.296875 
Q 5.515625 40.671875 12.859375 48.328125 
Q 20.21875 56 33.015625 56 
Q 37.15625 56 41.109375 55.140625 
Q 45.0625 54.296875 48.78125 52.59375 
z
" id="DejaVuSans-63"/>
      <path d="M 9.421875 75.984375 
L 18.40625 75.984375 
L 18.40625 0 
L 9.421875 0 
z
" id="DejaVuSans-6c"/>
      <path d="M 41.109375 46.296875 
Q 39.59375 47.171875 37.8125 47.578125 
Q 36.03125 48 33.890625 48 
Q 26.265625 48 22.1875 43.046875 
Q 18.109375 38.09375 18.109375 28.8125 
L 18.109375 0 
L 9.078125 0 
L 9.078125 54.6875 
L 18.109375 54.6875 
L 18.109375 46.1875 
Q 20.953125 51.171875 25.484375 53.578125 
Q 30.03125 56 36.53125 56 
Q 37.453125 56 38.578125 55.875 
Q 39.703125 55.765625 41.0625 55.515625 
z
" id="DejaVuSans-72"/>
      <path d="M 34.28125 27.484375 
Q 23.390625 27.484375 19.1875 25 
Q 14.984375 22.515625 14.984375 16.5 
Q 14.984375 11.71875 18.140625 8.90625 
Q 21.296875 6.109375 26.703125 6.109375 
Q 34.1875 6.109375 38.703125 11.40625 
Q 43.21875 16.703125 43.21875 25.484375 
L 43.21875 27.484375 
z
M 52.203125 31.203125 
L 52.203125 0 
L 43.21875 0 
L 43.21875 8.296875 
Q 40.140625 3.328125 35.546875 0.953125 
Q 30.953125 -1.421875 24.3125 -1.421875 
Q 15.921875 -1.421875 10.953125 3.296875 
Q 6 8.015625 6 15.921875 
Q 6 25.140625 12.171875 29.828125 
Q 18.359375 34.515625 30.609375 34.515625 
L 43.21875 34.515625 
L 43.21875 35.40625 
Q 43.21875 41.609375 39.140625 45 
Q 35.0625 48.390625 27.6875 48.390625 
Q 23 48.390625 18.546875 47.265625 
Q 14.109375 46.140625 10.015625 43.890625 
L 10.015625 52.203125 
Q 14.9375 54.109375 19.578125 55.046875 
Q 24.21875 56 28.609375 56 
Q 40.484375 56 46.34375 49.84375 
Q 52.203125 43.703125 52.203125 31.203125 
z
" id="DejaVuSans-61"/>
      <path d="M 18.3125 70.21875 
L 18.3125 54.6875 
L 36.8125 54.6875 
L 36.8125 47.703125 
L 18.3125 47.703125 
L 18.3125 18.015625 
Q 18.3125 11.328125 20.140625 9.421875 
Q 21.96875 7.515625 27.59375 7.515625 
L 36.8125 7.515625 
L 36.8125 0 
L 27.59375 0 
Q 17.1875 0 13.234375 3.875 
Q 9.28125 7.765625 9.28125 18.015625 
L 9.28125 47.703125 
L 2.6875 47.703125 
L 2.6875 54.6875 
L 9.28125 54.6875 
L 9.28125 70.21875 
z
" id="DejaVuSans-74"/>
      <path d="M 30.609375 48.390625 
Q 23.390625 48.390625 19.1875 42.75 
Q 14.984375 37.109375 14.984375 27.296875 
Q 14.984375 17.484375 19.15625 11.84375 
Q 23.34375 6.203125 30.609375 6.203125 
Q 37.796875 6.203125 41.984375 11.859375 
Q 46.1875 17.53125 46.1875 27.296875 
Q 46.1875 37.015625 41.984375 42.703125 
Q 37.796875 48.390625 30.609375 48.390625 
z
M 30.609375 56 
Q 42.328125 56 49.015625 48.375 
Q 55.71875 40.765625 55.71875 27.296875 
Q 55.71875 13.875 49.015625 6.21875 
Q 42.328125 -1.421875 30.609375 -1.421875 
Q 18.84375 -1.421875 12.171875 6.21875 
Q 5.515625 13.875 5.515625 27.296875 
Q 5.515625 40.765625 12.171875 48.375 
Q 18.84375 56 30.609375 56 
z
" id="DejaVuSans-6f"/>
      <path d="M 54.890625 33.015625 
L 54.890625 0 
L 45.90625 0 
L 45.90625 32.71875 
Q 45.90625 40.484375 42.875 44.328125 
Q 39.84375 48.1875 33.796875 48.1875 
Q 26.515625 48.1875 22.3125 43.546875 
Q 18.109375 38.921875 18.109375 30.90625 
L 18.109375 0 
L 9.078125 0 
L 9.078125 54.6875 
L 18.109375 54.6875 
L 18.109375 46.1875 
Q 21.34375 51.125 25.703125 53.5625 
Q 30.078125 56 35.796875 56 
Q 45.21875 56 50.046875 50.171875 
Q 54.890625 44.34375 54.890625 33.015625 
z
" id="DejaVuSans-6e"/>
      <path d="M 25.390625 72.90625 
L 33.6875 72.90625 
L 8.296875 -9.28125 
L 0 -9.28125 
z
" id="DejaVuSans-2f"/>
      <path d="M 46.6875 72.90625 
L 73.1875 45.703125 
L 63.375 45.703125 
L 41.890625 64.984375 
L 20.40625 45.703125 
L 10.59375 45.703125 
L 37.109375 72.90625 
z
" id="DejaVuSans-5e"/>
     </defs>
     <g transform="translate(20.2375 227.706125)rotate(-90)scale(0.1 -0.1)">
      <use xlink:href="#DejaVuSans-41"/>
      <use x="68.392578" xlink:href="#DejaVuSans-63"/>
      <use x="123.373047" xlink:href="#DejaVuSans-63"/>
      <use x="178.353516" xlink:href="#DejaVuSans-65"/>
      <use x="239.876953" xlink:href="#DejaVuSans-6c"/>
      <use x="267.660156" xlink:href="#DejaVuSans-65"/>
      <use x="329.183594" xlink:href="#DejaVuSans-72"/>
      <use x="370.296875" xlink:href="#DejaVuSans-61"/>
      <use x="431.576172" xlink:href="#DejaVuSans-74"/>
      <use x="470.785156" xlink:href="#DejaVuSans-69"/>
      <use x="498.568359" xlink:href="#DejaVuSans-6f"/>
      <use x="559.75" xlink:href="#DejaVuSans-6e"/>
      <use x="623.128906" xlink:href="#DejaVuSans-20"/>
      <use x="654.916016" xlink:href="#DejaVuSans-5b"/>
      <use x="693.929688" xlink:href="#DejaVuSans-6d"/>
      <use x="791.341797" xlink:href="#DejaVuSans-2f"/>
      <use x="825.033203" xlink:href="#DejaVuSans-73"/>
      <use x="877.132812" xlink:href="#DejaVuSans-5e"/>
      <use x="960.921875" xlink:href="#DejaVuSans-32"/>
      <use x="1024.544922" xlink:href="#DejaVuSans-5d"/>
     </g>
    </g>
   </g>
   <g id="line2d_25">
    <path clip-path="url(#p5b191c3ae7)" d="M 73.832727 185.72995 
L 95.439988 185.496389 
L 96.422136 207.500299 
L 96.531264 207.497879 
L 96.858646 210.24297 
L 96.967774 210.240395 
L 97.295157 212.985021 
L 97.404284 212.98229 
L 97.731667 215.726452 
L 97.840794 215.723568 
L 98.168177 218.467267 
L 98.277305 218.464228 
L 98.604688 221.207465 
L 98.93207 221.197889 
L 99.259453 223.940669 
L 99.368581 223.937325 
L 99.695963 226.679646 
L 99.805091 226.676148 
L 100.132474 229.418011 
L 100.241601 229.414361 
L 100.459856 230.783238 
L 100.678112 230.775789 
L 101.005494 233.516972 
L 101.114622 233.513096 
L 101.442005 236.253825 
L 101.551132 236.249797 
L 101.769387 237.617921 
L 101.987642 237.609718 
L 102.315025 240.349774 
L 102.424153 240.345522 
L 102.751536 243.085127 
L 103.078918 243.071926 
L 103.406301 245.811089 
L 103.515429 245.80654 
L 103.733684 247.173624 
L 103.951939 247.164382 
L 104.279322 249.902882 
L 104.606704 249.888581 
L 104.934087 252.626645 
L 105.26147 252.61191 
L 105.588853 255.349541 
L 105.916235 255.334373 
L 106.13449 256.700446 
L 106.352746 256.690196 
L 106.680128 259.427188 
L 107.007511 259.411382 
L 107.225766 260.777032 
L 107.444021 260.766359 
L 107.771404 263.502717 
L 108.098787 263.486281 
L 108.317042 264.851511 
L 108.535297 264.840419 
L 108.753552 266.205513 
L 108.971807 266.194286 
L 109.190063 267.559244 
L 109.408318 267.547882 
L 109.626573 268.912706 
L 109.844828 268.901209 
L 110.063083 270.265899 
L 110.281338 270.254269 
L 110.499594 271.618825 
L 110.717849 271.607062 
L 110.936104 272.971486 
L 111.154359 272.95959 
L 111.372614 274.323882 
L 111.809125 274.299837 
L 112.02738 275.664008 
L 112.245635 275.65186 
L 112.46389 277.0159 
L 112.9004 276.991354 
L 113.118655 278.355274 
L 113.336911 278.342877 
L 113.555166 279.706669 
L 113.991676 279.681628 
L 114.209931 281.045303 
L 114.646442 281.020029 
L 114.864697 282.383587 
L 115.301207 282.358082 
L 115.519462 283.721525 
L 115.955972 283.69579 
L 116.174228 285.059119 
L 116.610738 285.033158 
L 116.828993 286.396374 
L 117.483759 286.357112 
L 117.702014 287.720229 
L 118.356779 287.680671 
L 118.575034 289.04369 
L 119.448055 288.990582 
L 119.66631 290.353517 
L 120.539331 290.300078 
L 120.757586 291.662931 
L 121.630607 291.609168 
L 121.848862 292.97194 
L 123.376648 292.877442 
L 123.594903 294.240177 
L 125.559199 294.118476 
L 125.777455 295.481203 
L 127.086985 295.399911 
L 127.414368 292.627302 
L 127.523496 292.620703 
L 127.741751 291.231333 
L 127.960006 291.2183 
L 128.287389 288.446412 
L 128.396516 288.440052 
L 128.723899 285.668627 
L 128.833027 285.662421 
L 129.160409 282.891457 
L 129.487792 282.873308 
L 129.815175 280.10282 
L 129.924303 280.096926 
L 130.251685 277.326895 
L 130.579068 277.309675 
L 130.906451 274.540113 
L 131.015578 274.534526 
L 131.233833 273.147178 
L 131.452089 273.136163 
L 131.779471 270.367292 
L 131.888599 270.361935 
L 132.106854 268.975045 
L 132.325109 268.964488 
L 132.652492 266.196302 
L 132.979875 266.180921 
L 133.307257 263.413193 
L 133.63464 263.398268 
L 133.962023 260.630995 
L 134.289406 260.616523 
L 134.616788 257.849701 
L 134.944171 257.83568 
L 135.162426 256.450158 
L 135.380681 256.440965 
L 135.708064 253.674821 
L 136.035447 253.661476 
L 136.253702 252.276403 
L 136.471957 252.267659 
L 136.690212 250.882737 
L 136.908468 250.874143 
L 137.126723 249.489372 
L 137.344978 249.480929 
L 137.672361 246.715907 
L 137.999743 246.703679 
L 138.217998 245.31935 
L 138.436254 245.311348 
L 138.654509 243.927167 
L 138.872764 243.919314 
L 139.091019 242.535281 
L 139.309274 242.527575 
L 139.527529 241.143689 
L 139.745785 241.13613 
L 139.96404 239.752392 
L 140.182295 239.744979 
L 140.40055 238.361387 
L 140.618805 238.354121 
L 140.83706 236.970674 
L 141.273571 236.956437 
L 141.491826 235.573141 
L 141.710081 235.56617 
L 141.928336 234.183018 
L 142.146591 234.176192 
L 142.364846 232.793184 
L 142.801357 232.779824 
L 143.019612 231.396964 
L 143.237867 231.39043 
L 143.456122 230.007714 
L 143.674377 230.001322 
L 143.892633 228.618749 
L 144.329143 228.606255 
L 144.547398 227.223829 
L 144.983908 227.211627 
L 145.202163 225.829345 
L 145.420419 225.823388 
L 145.638674 224.441248 
L 146.075184 224.429619 
L 146.293439 223.047624 
L 146.72995 223.036283 
L 146.948205 221.654431 
L 147.384715 221.643377 
L 147.60297 220.261669 
L 148.039481 220.250901 
L 148.257736 218.869335 
L 148.694246 218.858852 
L 148.912501 217.477428 
L 149.567267 217.462133 
L 149.785522 216.080853 
L 150.222032 216.070941 
L 150.440287 214.689803 
L 151.095053 214.675361 
L 151.313308 213.294365 
L 151.968073 213.28035 
L 152.186328 211.899496 
L 152.841094 211.885906 
L 153.059349 210.505194 
L 153.714115 210.492027 
L 153.93237 209.111456 
L 154.587135 209.098711 
L 154.80539 207.71828 
L 155.678411 207.70185 
L 155.896666 206.32156 
L 160.261769 206.242492 
L 160.480024 207.614743 
L 160.69828 207.610676 
L 161.025662 210.356955 
L 161.353045 210.350468 
L 161.5713 211.722333 
L 161.789555 211.717881 
L 162.007811 213.089619 
L 162.226066 213.08504 
L 162.444321 214.456651 
L 162.662576 214.451946 
L 162.880831 215.82343 
L 163.099086 215.818597 
L 163.317341 217.189955 
L 163.535597 217.184996 
L 163.753852 218.556228 
L 163.972107 218.551143 
L 164.190362 219.922249 
L 164.408617 219.917039 
L 164.626872 221.28802 
L 164.845128 221.282684 
L 165.063383 222.65354 
L 165.281638 222.64808 
L 165.499893 224.01881 
L 165.936403 224.007644 
L 166.154659 225.378254 
L 166.372914 225.372548 
L 166.591169 226.743034 
L 167.027679 226.731379 
L 167.245934 228.101744 
L 167.464189 228.095795 
L 167.682445 229.466038 
L 168.118955 229.453897 
L 168.33721 230.824021 
L 168.77372 230.811644 
L 168.991976 232.181649 
L 169.428486 232.169035 
L 169.646741 233.538923 
L 170.083251 233.526075 
L 170.301506 234.895845 
L 170.956272 234.876229 
L 171.174527 236.245888 
L 171.611037 236.232582 
L 171.829293 237.602125 
L 172.484058 237.581828 
L 172.702313 238.95126 
L 173.357079 238.930633 
L 173.575334 240.299956 
L 174.230099 240.279001 
L 174.448354 241.648215 
L 175.321375 241.619854 
L 175.53963 242.988965 
L 176.412651 242.960195 
L 176.630906 244.329205 
L 177.722182 244.292751 
L 177.940437 245.661666 
L 179.249968 245.617373 
L 179.468223 246.9862 
L 180.996009 246.933934 
L 181.214264 248.302681 
L 183.178561 248.234817 
L 183.396816 249.603497 
L 187.107154 249.474594 
L 187.325409 250.843257 
L 205.222332 250.236357 
L 205.440587 248.853009 
L 206.750118 248.810908 
L 206.968373 247.427715 
L 208.059649 247.39339 
L 208.277904 246.010346 
L 209.587435 245.970056 
L 209.80569 244.587163 
L 211.115221 244.547779 
L 211.333476 243.165037 
L 212.643007 243.126547 
L 212.861262 241.743953 
L 214.170793 241.706347 
L 214.389048 240.323899 
L 215.698579 240.287167 
L 215.916834 238.904864 
L 217.44462 238.863031 
L 217.662875 237.480876 
L 218.972406 237.445885 
L 219.190662 236.063871 
L 220.936703 236.018373 
L 221.154958 234.636507 
L 222.900999 234.592183 
L 223.119254 233.210462 
L 225.083551 233.161917 
L 225.301806 231.780343 
L 227.920868 231.717439 
L 228.139123 230.336021 
L 232.285971 230.239595 
L 232.504226 228.858356 
L 237.74235 228.740965 
L 237.960605 227.359915 
L 243.416984 227.242348 
L 243.744367 224.482954 
L 243.853494 224.480729 
L 244.071749 223.100079 
L 244.290005 223.095736 
L 244.617387 220.336824 
L 244.726515 220.334758 
L 244.94477 218.954428 
L 245.38128 218.946383 
L 245.708663 216.187953 
L 245.817791 216.186048 
L 246.145173 213.427932 
L 246.254301 213.426131 
L 246.581684 210.668329 
L 246.690811 210.666633 
L 246.909066 209.287041 
L 247.345577 209.280469 
L 247.67296 206.523141 
L 247.782087 206.521602 
L 248.000342 205.142325 
L 248.436853 205.136382 
L 248.764235 202.379524 
L 248.873363 202.378143 
L 249.091618 200.999178 
L 249.746383 200.991203 
L 249.964639 198.236143 
L 250.182894 196.857489 
L 250.837659 196.850447 
L 251.055914 194.095696 
L 251.27417 192.717352 
L 251.71068 192.713275 
L 251.928935 191.335035 
L 252.365445 191.331164 
L 252.692828 188.575858 
L 252.801956 188.574993 
L 253.020211 187.19706 
L 253.893231 187.19055 
L 254.111487 185.812722 
L 254.329742 180.306387 
L 398.487273 179.619754 
L 398.487273 179.619754 
" style="fill:none;stroke:#008000;stroke-linecap:square;stroke-width:1.5;"/>
   </g>
   <g id="line2d_26">
    <path clip-path="url(#p5b191c3ae7)" d="M 73.832727 255.220472 
L 74.16011 236.819896 
L 74.59662 223.670032 
L 75.033131 218.687244 
L 75.251386 282.545552 
L 75.578769 282.545552 
L 75.797024 283.523212 
L 76.124406 283.523212 
L 76.342662 283.382484 
L 76.779172 283.382484 
L 76.997427 281.223695 
L 77.215682 281.223695 
L 77.433937 279.846174 
L 77.76132 279.846174 
L 77.979575 279.577207 
L 78.306958 279.577207 
L 78.525213 279.712348 
L 78.852596 279.712348 
L 79.070851 280.071567 
L 79.943872 280.131977 
L 80.162127 280.657095 
L 80.48951 280.657095 
L 80.707765 281.197501 
L 81.035147 281.197501 
L 81.253403 281.357213 
L 81.580785 281.357213 
L 81.79904 281.877291 
L 82.126423 281.877291 
L 82.344678 282.378623 
L 82.672061 282.378623 
L 82.890316 282.859935 
L 83.763337 282.897301 
L 83.981592 283.340471 
L 84.308975 283.340471 
L 84.52723 283.76852 
L 84.854613 283.76852 
L 85.072868 284.183591 
L 85.945888 284.155843 
L 86.164144 284.503393 
L 86.491526 284.503393 
L 86.709782 284.88919 
L 87.582802 284.832476 
L 87.801057 285.206052 
L 88.12844 285.206052 
L 88.346695 285.576141 
L 88.674078 285.576141 
L 88.892333 285.944718 
L 89.765354 285.868026 
L 89.983609 286.23281 
L 90.310992 286.23281 
L 90.529247 286.597495 
L 91.402267 286.513929 
L 91.620523 286.878223 
L 91.947905 286.878223 
L 92.16616 287.244238 
L 92.493543 287.244238 
L 92.711798 287.612354 
L 93.039181 287.612354 
L 93.257436 287.47535 
L 93.584819 287.47535 
L 93.803074 287.845649 
L 94.130457 287.845649 
L 94.348712 288.218581 
L 94.676095 288.218581 
L 94.89435 288.594662 
L 95.767371 288.509528 
L 95.985626 288.889964 
L 96.858646 288.805866 
L 97.076901 289.137329 
L 97.949922 289.056283 
L 98.168177 289.450481 
L 99.041198 289.376267 
L 99.259453 289.249203 
L 100.132474 289.179665 
L 100.350729 289.586085 
L 100.678112 289.586085 
L 100.896367 290.708897 
L 101.223749 290.708897 
L 101.442005 292.103785 
L 101.769387 292.103785 
L 101.987642 292.3613 
L 102.315025 292.3613 
L 102.53328 291.965297 
L 102.860663 291.965297 
L 103.078918 291.151814 
L 103.406301 291.151814 
L 103.624556 288.87364 
L 103.951939 288.87364 
L 104.170194 288.51573 
L 105.043215 288.461438 
L 105.26147 288.350965 
L 106.13449 288.299963 
L 106.352746 288.191981 
L 106.680128 288.191981 
L 106.898383 287.597668 
L 107.771404 287.54983 
L 107.989659 287.44462 
L 108.317042 287.44462 
L 108.535297 286.851651 
L 109.408318 286.806389 
L 109.626573 286.703629 
L 109.953956 286.703629 
L 110.172211 286.11241 
L 111.045231 286.011274 
L 111.263487 285.420545 
L 112.136507 285.320445 
L 112.354762 284.730584 
L 113.227783 284.631548 
L 113.446038 284.043003 
L 114.319059 283.944878 
L 114.537314 283.357173 
L 114.864697 283.357173 
L 115.082952 282.770111 
L 115.955972 282.672728 
L 116.174228 282.0865 
L 116.50161 282.0865 
L 116.719866 281.931023 
L 117.047248 281.931023 
L 117.265503 281.345607 
L 117.592886 281.345607 
L 117.811141 280.760996 
L 118.138524 280.760996 
L 118.356779 280.606093 
L 118.684162 280.606093 
L 118.902417 280.022301 
L 119.2298 280.022301 
L 119.448055 279.381095 
L 120.321076 279.284964 
L 120.539331 278.644759 
L 120.866714 278.644759 
L 121.084969 278.063179 
L 121.412351 278.063179 
L 121.630607 277.425102 
L 121.957989 277.425102 
L 122.176244 277.270724 
L 122.503627 277.270724 
L 122.721882 276.691062 
L 123.049265 276.691062 
L 123.26752 276.054567 
L 123.594903 276.054567 
L 123.813158 275.41964 
L 124.140541 275.41964 
L 124.358796 275.265605 
L 124.686179 275.265605 
L 124.904434 274.631378 
L 125.231817 274.631378 
L 125.450072 273.998306 
L 125.777455 273.998306 
L 125.99571 265.78172 
L 126.323092 265.78172 
L 126.541348 265.61757 
L 126.86873 265.61757 
L 127.086985 265.044285 
L 127.414368 265.044285 
L 127.632623 264.472582 
L 127.960006 264.472582 
L 128.178261 263.902447 
L 128.505644 263.902447 
L 128.723899 263.738206 
L 129.051282 263.738206 
L 129.269537 263.130439 
L 129.59692 263.130439 
L 129.815175 262.562999 
L 130.142558 262.562999 
L 130.360813 262.397057 
L 130.688196 262.397057 
L 130.906451 261.790683 
L 131.233833 261.790683 
L 131.452089 261.622508 
L 131.779471 261.622508 
L 131.997727 261.016414 
L 132.325109 261.016414 
L 132.543364 260.845915 
L 132.870747 260.845915 
L 133.089002 260.636406 
L 133.416385 260.636406 
L 133.63464 260.067615 
L 133.852895 260.067615 
L 133.962023 219.887917 
L 134.180278 259.856236 
L 134.398533 259.856236 
L 134.507661 219.935856 
L 134.725916 259.682055 
L 134.944171 259.682055 
L 135.053299 219.981965 
L 135.162426 259.075492 
L 135.271554 220.0004 
L 135.380681 220.009248 
L 135.598937 220.027119 
L 135.708064 258.862532 
L 135.817192 220.045192 
L 135.926319 220.053893 
L 136.144574 220.071526 
L 136.253702 258.685306 
L 136.36283 220.088666 
L 136.471957 220.097377 
L 136.690212 220.114643 
L 136.79934 258.47056 
L 136.908468 220.131502 
L 137.017595 220.139913 
L 137.23585 220.156678 
L 137.344978 258.255388 
L 137.454105 220.173551 
L 137.563233 220.181766 
L 143.237867 220.562089 
L 143.456122 255.886675 
L 143.56525 220.581717 
L 143.674377 220.588182 
L 143.783505 220.594618 
L 144.00176 255.664384 
L 144.110888 220.613774 
L 144.220015 220.620119 
L 144.329143 220.626447 
L 144.547398 255.443107 
L 144.656526 255.443107 
L 144.765653 220.650576 
L 144.874781 220.656572 
L 145.093036 255.185311 
L 145.202163 220.674691 
L 145.311291 220.680774 
L 145.420419 220.686878 
L 145.638674 254.96295 
L 145.747801 254.96295 
L 145.856929 220.71037 
L 145.966057 220.71626 
L 146.184312 254.739531 
L 146.402567 254.739531 
L 146.511694 220.745205 
L 146.72995 254.51633 
L 146.948205 254.51633 
L 147.057332 220.77338 
L 147.275587 254.67833 
L 147.60297 254.67833 
L 147.821225 254.418344 
L 148.148608 254.418344 
L 148.366863 254.193644 
L 148.694246 254.193644 
L 148.912501 253.96872 
L 149.239884 253.96872 
L 149.458139 254.129223 
L 149.785522 254.129223 
L 150.003777 253.867746 
L 150.33116 253.867746 
L 150.549415 253.64166 
L 150.876798 253.64166 
L 151.095053 253.801239 
L 151.422435 253.801239 
L 151.640691 253.538634 
L 151.968073 253.538634 
L 152.186328 253.311386 
L 152.513711 253.311386 
L 152.731966 253.470279 
L 153.059349 253.470279 
L 153.277604 253.206443 
L 153.604987 253.206443 
L 153.823242 252.978369 
L 154.150625 252.978369 
L 154.36888 253.101044 
L 154.696263 253.101044 
L 154.914518 252.872291 
L 155.351028 252.872291 
L 155.569283 252.994805 
L 155.787539 252.994805 
L 156.005794 252.765359 
L 156.333176 252.765359 
L 156.551432 252.923937 
L 156.878814 252.923937 
L 157.09707 252.65751 
L 157.424452 252.65751 
L 157.642707 252.391168 
L 157.97009 252.391168 
L 158.188345 252.549053 
L 158.515728 252.549053 
L 158.733983 259.39332 
L 159.061366 259.39332 
L 159.279621 259.626972 
L 159.607004 259.626972 
L 159.825259 259.331216 
L 160.152642 259.331216 
L 160.370897 259.566429 
L 160.69828 259.566429 
L 160.916535 259.270414 
L 161.243917 259.270414 
L 161.462173 258.974419 
L 161.789555 258.974419 
L 162.007811 259.211166 
L 162.335193 259.211166 
L 162.553448 258.915073 
L 162.880831 258.915073 
L 163.099086 258.675898 
L 163.426469 258.675898 
L 163.644724 258.859739 
L 163.972107 258.859739 
L 164.190362 258.565172 
L 164.517745 258.565172 
L 164.736 258.271726 
L 165.063383 258.271726 
L 165.281638 258.514716 
L 165.609021 258.514716 
L 165.827276 258.22204 
L 166.154659 258.22204 
L 166.372914 257.930175 
L 166.700296 257.930175 
L 166.918552 257.639067 
L 167.245934 257.639067 
L 167.464189 257.404812 
L 167.791572 257.404812 
L 168.009827 257.114802 
L 168.33721 257.114802 
L 168.555465 257.304796 
L 168.882848 257.304796 
L 169.101103 257.015347 
L 169.428486 257.015347 
L 169.646741 256.726387 
L 169.974124 256.726387 
L 170.192379 256.438631 
L 170.519762 256.438631 
L 170.738017 256.151702 
L 171.0654 256.151702 
L 171.283655 255.86473 
L 171.611037 255.86473 
L 171.829293 255.578851 
L 172.156675 255.578851 
L 172.37493 255.293293 
L 172.702313 255.293293 
L 172.920568 255.008135 
L 173.247951 255.008135 
L 173.466206 254.723473 
L 173.793589 254.723473 
L 174.011844 254.439372 
L 174.339227 254.439372 
L 174.557482 254.155907 
L 174.884865 254.155907 
L 175.10312 253.872821 
L 175.430503 253.872821 
L 175.648758 253.536275 
L 175.976141 253.536275 
L 176.194396 253.254547 
L 176.521778 253.254547 
L 176.740034 252.973175 
L 177.067416 252.973175 
L 177.285672 252.692342 
L 177.613054 252.692342 
L 177.831309 251.947593 
L 178.158692 251.947593 
L 178.376947 251.61657 
L 178.70433 251.61657 
L 178.922585 251.33795 
L 179.249968 251.33795 
L 179.468223 251.008523 
L 179.795606 251.008523 
L 180.013861 250.731401 
L 180.341244 250.731401 
L 180.559499 250.454544 
L 180.886882 250.454544 
L 181.105137 250.127407 
L 181.432519 250.127407 
L 181.650775 249.85146 
L 181.978157 249.85146 
L 182.196413 249.52596 
L 182.523795 249.52596 
L 182.74205 248.801434 
L 183.069433 248.801434 
L 183.287688 248.479392 
L 183.615071 248.479392 
L 183.833326 248.206792 
L 184.160709 248.206792 
L 184.378964 247.886598 
L 184.706347 247.886598 
L 184.924602 247.567322 
L 185.251985 247.567322 
L 185.47024 247.296289 
L 185.797623 247.296289 
L 186.015878 246.978868 
L 186.343261 246.978868 
L 186.561516 246.227678 
L 186.888898 246.227678 
L 187.107154 245.914365 
L 187.434536 245.914365 
L 187.652791 245.646847 
L 187.980174 245.646847 
L 188.198429 245.335102 
L 188.525812 245.335102 
L 188.744067 245.024401 
L 189.07145 245.024401 
L 189.289705 244.715211 
L 189.617088 244.715211 
L 189.835343 243.986008 
L 190.162726 243.986008 
L 190.380981 243.680858 
L 190.708364 243.680858 
L 190.926619 243.377086 
L 191.254002 243.377086 
L 191.472257 243.074183 
L 191.799639 243.074183 
L 192.017895 242.772728 
L 192.345277 242.772728 
L 192.563532 242.472366 
L 192.890915 242.472366 
L 193.10917 241.767642 
L 193.436553 241.767642 
L 193.654808 241.471738 
L 193.982191 241.471738 
L 194.200446 241.17699 
L 194.527829 241.17699 
L 194.746084 240.883515 
L 195.073467 240.883515 
L 195.291722 240.553914 
L 195.619105 240.553914 
L 195.83736 240.263134 
L 196.164743 240.263134 
L 196.382998 239.585703 
L 196.71038 239.585703 
L 196.928636 239.29974 
L 197.256018 239.29974 
L 197.474273 238.980659 
L 197.801656 238.980659 
L 198.019911 238.697853 
L 198.347294 238.697853 
L 198.565549 238.416481 
L 198.892932 238.416481 
L 199.111187 238.103162 
L 199.43857 238.103162 
L 199.656825 237.455376 
L 199.984208 237.455376 
L 200.202463 237.149378 
L 200.529846 237.149378 
L 200.748101 236.876393 
L 201.075484 236.876393 
L 201.293739 236.57484 
L 201.621121 236.57484 
L 201.839377 236.305852 
L 202.166759 236.305852 
L 202.385015 236.008674 
L 202.712397 236.008674 
L 202.930652 235.393417 
L 203.258035 235.393417 
L 203.47629 235.103666 
L 203.803673 235.103666 
L 204.021928 234.816807 
L 204.349311 234.816807 
L 204.567566 234.559193 
L 204.894949 234.559193 
L 205.113204 234.276772 
L 205.440587 234.276772 
L 205.658842 233.996793 
L 205.986225 233.996793 
L 206.20448 233.719517 
L 206.531862 233.719517 
L 206.750118 233.144713 
L 207.0775 233.144713 
L 207.295756 232.875367 
L 207.623138 232.875367 
L 207.841393 232.608387 
L 208.168776 232.608387 
L 208.387031 232.344166 
L 208.714414 232.344166 
L 208.932669 232.082317 
L 209.260052 232.082317 
L 209.478307 231.823136 
L 209.80569 231.823136 
L 210.023945 231.566523 
L 210.460455 231.566523 
L 210.67871 231.312361 
L 210.896966 231.312361 
L 211.115221 231.061033 
L 211.442604 231.061033 
L 211.660859 230.811672 
L 211.988241 230.811672 
L 212.206497 230.276649 
L 212.533879 230.276649 
L 212.752134 230.036879 
L 213.079517 230.036879 
L 213.297772 229.799551 
L 213.625155 229.799551 
L 213.84341 229.547614 
L 214.170793 229.547614 
L 214.389048 229.316209 
L 214.716431 229.316209 
L 214.934686 229.087456 
L 215.262069 229.087456 
L 215.480324 228.861734 
L 215.807707 228.861734 
L 216.025962 228.638638 
L 216.353345 228.638638 
L 216.5716 228.403361 
L 216.898982 228.403361 
L 217.117238 228.186592 
L 217.44462 228.186592 
L 217.662875 227.972288 
L 217.990258 227.972288 
L 218.208513 227.747385 
L 218.535896 227.747385 
L 218.754151 227.539486 
L 219.081534 227.539486 
L 219.299789 227.321772 
L 219.627172 227.321772 
L 219.845427 227.120116 
L 220.17281 227.120116 
L 220.391065 226.921772 
L 222.573617 227.023488 
L 239.597519 228.748181 
L 249.855511 229.603936 
L 256.621421 229.835769 
L 292.197011 230.654201 
L 373.933568 232.540649 
L 398.487273 233.097771 
L 398.487273 233.097771 
" style="fill:none;stroke:#000000;stroke-dasharray:5.55,2.4;stroke-dashoffset:0;stroke-width:1.5;"/>
   </g>
   <g id="line2d_27">
    <path clip-path="url(#p5b191c3ae7)" d="M 73.832727 53.568 
L 74.16011 83.453577 
L 74.59662 106.540423 
L 75.033131 111.523211 
L 75.251386 282.545552 
L 76.779172 282.545552 
L 76.888299 255.590667 
L 77.215682 257.380088 
L 77.433937 234.419985 
L 77.652193 233.982919 
L 77.76132 233.596317 
L 77.979575 223.789707 
L 78.306958 221.90894 
L 78.525213 218.463031 
L 78.852596 216.199252 
L 78.961723 216.812027 
L 79.398234 213.700637 
L 79.507361 215.610245 
L 79.943872 212.60125 
L 80.052999 215.644464 
L 80.48951 212.83603 
L 80.598637 216.144592 
L 81.035147 213.583755 
L 81.144275 216.553395 
L 81.580785 214.26506 
L 81.689913 217.402606 
L 82.126423 215.370411 
L 82.235551 218.277219 
L 82.672061 216.491029 
L 82.781189 219.139947 
L 83.217699 217.573752 
L 83.326827 219.584712 
L 83.763337 218.221345 
L 83.872464 220.364483 
L 84.308975 219.174621 
L 84.418102 221.096731 
L 84.854613 220.06349 
L 84.96374 221.786338 
L 85.400251 220.884911 
L 85.509378 220.884911 
L 85.618506 221.894488 
L 85.945888 221.488702 
L 86.055016 222.874031 
L 86.491526 222.325988 
L 86.600654 223.609072 
L 87.037164 223.054407 
L 87.146292 223.791209 
L 87.582802 223.234422 
L 87.69193 224.258934 
L 88.12844 223.696726 
L 88.237568 224.614925 
L 88.674078 224.047772 
L 88.783206 224.889955 
L 89.219716 224.318196 
L 89.328843 224.668251 
L 89.765354 224.096226 
L 89.874481 224.800215 
L 90.310992 224.224207 
L 90.420119 224.870292 
L 90.856629 224.290553 
L 90.965757 224.475086 
L 91.402267 223.895879 
L 91.511395 224.453456 
L 91.947905 223.87091 
L 92.057033 224.397079 
L 92.493543 223.811323 
L 92.602671 224.311721 
L 93.584819 223.140556 
L 93.693947 223.59664 
L 94.130457 223.006818 
L 94.239584 223.442543 
L 94.676095 222.849885 
L 94.785222 223.273003 
L 95.767371 222.074353 
L 95.876498 222.474871 
L 96.858646 221.251508 
L 96.967774 221.583444 
L 97.949922 220.373796 
L 98.05905 220.815842 
L 98.49556 220.217683 
L 98.604688 220.273763 
L 99.586836 219.112398 
L 99.695963 219.225203 
L 100.132474 218.631128 
L 100.241601 219.232508 
L 100.678112 218.637012 
L 100.787239 219.973124 
L 101.223749 219.372707 
L 101.332877 220.937992 
L 101.769387 220.329641 
L 101.878515 220.831519 
L 102.860663 219.475596 
L 103.078918 218.779661 
L 103.406301 218.328165 
L 103.624556 216.249344 
L 104.497577 215.164632 
L 104.606704 215.420468 
L 105.043215 214.833543 
L 105.152342 215.052681 
L 105.588853 214.466632 
L 105.69798 214.752445 
L 106.13449 214.166283 
L 106.243618 214.410219 
L 107.225766 213.089584 
L 107.334894 213.410981 
L 107.771404 212.830468 
L 107.880532 213.109002 
L 108.86268 211.832498 
L 108.971807 212.179382 
L 109.408318 211.603916 
L 109.517445 211.911625 
L 110.499594 210.68522 
L 110.608721 211.018469 
L 111.590869 209.811118 
L 111.699997 210.160011 
L 112.682145 208.9773 
L 112.791273 209.342626 
L 113.773421 208.191614 
L 113.882549 208.571122 
L 114.864697 207.443449 
L 114.973824 207.428357 
L 115.410335 206.880604 
L 115.519462 207.277377 
L 116.50161 206.185022 
L 116.610738 206.545718 
L 117.592886 205.473316 
L 117.702014 205.489822 
L 118.138524 204.95469 
L 118.247652 205.329116 
L 119.2298 204.290552 
L 119.338927 204.272632 
L 119.775438 203.746761 
L 119.884565 204.185454 
L 120.866714 203.130773 
L 120.975841 203.172374 
L 121.957989 202.141734 
L 122.067117 202.54017 
L 122.503627 202.026945 
L 122.612755 202.084835 
L 123.594903 201.074176 
L 123.704031 201.085397 
L 124.140541 200.585266 
L 124.249668 201.000284 
L 125.231817 200.014878 
L 125.340944 200.025977 
L 125.777455 199.534784 
L 125.99571 193.387033 
L 126.323092 193.308557 
L 126.43222 193.693724 
L 127.414368 193.540206 
L 127.632623 193.574108 
L 128.505644 193.448691 
L 128.614772 193.842875 
L 129.59692 193.655553 
L 129.815175 193.681217 
L 130.142558 193.599971 
L 130.251685 193.978053 
L 131.233833 193.749085 
L 131.342961 194.100994 
L 132.325109 193.841076 
L 132.434237 194.164556 
L 132.870747 194.052074 
L 132.979875 194.327697 
L 133.962023 194.057251 
L 134.07115 194.303204 
L 134.507661 194.189045 
L 134.616788 194.46863 
L 135.598937 194.121014 
L 135.817192 194.312147 
L 136.144574 194.225746 
L 136.253702 194.465917 
L 136.690212 194.349542 
L 136.908468 194.516737 
L 137.23585 194.428952 
L 137.454105 194.59002 
L 137.781488 194.501694 
L 137.999743 194.651326 
L 138.327126 194.562507 
L 138.545381 194.350167 
L 138.872764 194.262464 
L 139.091019 194.434725 
L 139.418402 194.346366 
L 139.636657 194.471689 
L 139.96404 194.382939 
L 140.182295 194.496759 
L 140.509678 194.40767 
L 140.727933 194.51659 
L 141.055316 194.427185 
L 141.273571 194.527423 
L 141.600953 194.437739 
L 141.819209 194.530828 
L 142.146591 194.440896 
L 142.364846 194.524493 
L 142.692229 194.434354 
L 142.910484 194.510637 
L 143.237867 194.420326 
L 143.346995 194.885637 
L 144.110888 194.785477 
L 144.329143 194.72407 
L 144.547398 194.791931 
L 145.420419 194.623228 
L 145.638674 194.672011 
L 146.511694 194.51994 
L 146.72995 194.554509 
L 147.057332 194.462356 
L 147.16646 194.887282 
L 148.148608 194.650143 
L 148.366863 194.664913 
L 149.239884 194.488608 
L 149.349011 194.897992 
L 150.876798 194.53745 
L 150.985925 194.933328 
L 152.513711 194.540187 
L 152.622839 194.925628 
L 154.150625 194.50364 
L 154.259752 194.840473 
L 155.351028 194.577088 
L 155.460156 194.874216 
L 156.333176 194.634138 
L 156.442304 195.000804 
L 157.09707 194.560939 
L 157.751835 194.217531 
L 157.97009 194.153914 
L 158.079218 194.510343 
L 158.515728 194.125998 
L 158.624856 203.301345 
L 158.733983 203.164891 
L 159.061366 202.756995 
L 159.170494 203.201693 
L 160.152642 201.978106 
L 160.261769 202.413901 
L 161.789555 200.531264 
L 161.898683 200.966824 
L 163.426469 199.207118 
L 163.535597 199.597991 
L 165.063383 197.860089 
L 165.17251 198.35698 
L 166.154659 197.266396 
L 166.372914 197.103986 
L 167.245934 196.182609 
L 167.355062 196.239522 
L 168.33721 195.218955 
L 168.446338 195.707358 
L 169.428486 194.707658 
L 169.537613 194.724875 
L 170.519762 193.764574 
L 170.628889 193.812185 
L 171.174527 193.361615 
L 171.611037 192.872655 
L 171.720165 192.931121 
L 172.156675 192.445701 
L 172.265803 192.505754 
L 172.702313 192.023854 
L 172.811441 192.086752 
L 173.247951 191.608342 
L 173.357079 191.675928 
L 173.793589 191.200956 
L 173.902717 191.27439 
L 174.339227 190.802797 
L 174.448354 190.883283 
L 174.884865 190.414999 
L 174.993992 190.497844 
L 175.976141 189.597758 
L 176.085268 189.691577 
L 176.521778 189.234386 
L 176.630906 189.329744 
L 177.067416 188.875681 
L 177.176544 188.97591 
L 177.613054 188.52492 
L 177.831309 188.071172 
L 178.26782 187.786635 
L 178.70433 187.349442 
L 178.813458 187.451837 
L 179.249968 187.017616 
L 179.359095 187.067396 
L 179.795606 186.63748 
L 179.904733 186.751259 
L 180.341244 186.324173 
L 180.450371 186.437159 
L 180.886882 186.012899 
L 180.996009 186.068829 
L 181.432519 185.648773 
L 181.541647 185.762133 
L 181.978157 185.344867 
L 182.087285 185.40362 
L 182.523795 184.990501 
L 182.74205 184.57925 
L 183.069433 184.276608 
L 183.178561 184.337401 
L 183.615071 183.937392 
L 183.724199 184.056195 
L 184.160709 183.658815 
L 184.269837 183.7243 
L 184.706347 183.330879 
L 184.815474 183.394558 
L 185.251985 183.005093 
L 185.361112 183.122421 
L 185.797623 182.735544 
L 185.90675 182.80298 
L 186.343261 182.419986 
L 186.561516 181.992334 
L 186.888898 181.713016 
L 186.998026 181.781045 
L 187.434536 181.411878 
L 187.543664 181.526095 
L 187.980174 181.159427 
L 188.089302 181.224658 
L 188.525812 180.861766 
L 188.63494 180.925734 
L 189.07145 180.566608 
L 189.180578 180.636766 
L 189.617088 180.281311 
L 189.835343 179.872895 
L 190.162726 179.614064 
L 190.271853 179.679305 
L 190.708364 179.337317 
L 190.817491 179.405609 
L 191.254002 179.06719 
L 191.363129 179.130424 
L 191.799639 178.79561 
L 191.908767 178.862581 
L 192.345277 178.531304 
L 192.454405 178.596346 
L 192.890915 178.268606 
L 193.10917 177.880496 
L 193.436553 177.642272 
L 193.545681 177.704182 
L 193.982191 177.389527 
L 194.091319 177.449638 
L 194.527829 177.138459 
L 194.636956 177.198227 
L 195.619105 176.60824 
L 195.728232 176.662257 
L 196.164743 176.362569 
L 196.382998 175.999261 
L 197.256018 175.546392 
L 197.474273 175.49634 
L 198.347294 175.055801 
L 198.565549 175.036737 
L 200.966356 173.64445 
L 201.621121 173.347989 
L 201.839377 173.330893 
L 204.349311 172.000294 
L 204.567566 171.981556 
L 205.440587 171.608996 
L 205.658842 171.566423 
L 208.168776 170.390467 
L 208.496159 170.301252 
L 209.80569 169.839878 
L 210.133073 169.749354 
L 211.442604 169.304999 
L 211.879114 169.167224 
L 211.988241 169.125564 
L 212.206497 168.851808 
L 214.170793 168.239402 
L 214.825558 168.068009 
L 217.44462 167.337587 
L 219.299789 166.868517 
L 222.791872 166.13218 
L 225.410934 165.75671 
L 229.448654 165.263709 
L 229.776037 165.282084 
L 233.377247 165.113617 
L 240.688794 165.105227 
L 243.635239 165.105227 
L 243.744367 96.991815 
L 243.962622 165.105227 
L 244.180877 165.105227 
L 244.399132 96.882902 
L 244.726515 96.829891 
L 244.94477 165.105227 
L 245.163025 165.105227 
L 245.38128 96.728405 
L 245.599536 165.105227 
L 245.817791 165.105227 
L 246.036046 96.63149 
L 246.254301 165.105227 
L 246.363429 165.105227 
L 246.581684 96.556394 
L 246.909066 96.513366 
L 247.127322 165.105227 
L 247.454704 165.105227 
L 247.67296 96.417536 
L 247.891215 165.105227 
L 248.327725 165.105227 
L 248.54598 96.318311 
L 249.091618 96.261037 
L 249.309873 165.105227 
L 249.419001 165.105227 
L 249.637256 96.207571 
L 250.182894 96.157661 
L 250.401149 165.105227 
L 250.510277 165.105227 
L 250.728532 96.111727 
L 251.165042 96.075733 
L 251.383297 165.105227 
L 251.492425 165.105227 
L 251.71068 96.03227 
L 251.819807 96.02443 
L 252.038063 165.105227 
L 252.365445 165.105227 
L 252.583701 95.970936 
L 252.911083 95.949537 
L 253.129338 165.105227 
L 254.002359 165.105227 
L 254.220614 95.873329 
L 254.438869 95.862108 
L 254.657125 165.105227 
L 254.87538 95.841787 
L 255.093635 95.833471 
L 255.31189 165.105227 
L 256.184911 165.105227 
L 256.403166 95.785346 
L 256.730549 95.774685 
L 256.839676 165.105227 
L 257.057931 95.764094 
L 257.385314 95.75239 
L 257.603569 165.105227 
L 257.821824 165.105227 
L 257.930952 95.732874 
L 258.149207 165.105227 
L 258.367462 165.105227 
L 258.585717 95.709046 
L 260.113503 95.652444 
L 260.331759 165.105227 
L 261.095652 165.105227 
L 261.204779 95.610766 
L 261.423034 165.105227 
L 261.64129 165.105227 
L 261.859545 95.584908 
L 262.296055 95.568087 
L 262.51431 165.105227 
L 262.841693 165.105227 
L 263.059948 95.537189 
L 263.932969 95.501909 
L 264.151224 165.105227 
L 264.369479 165.105227 
L 264.587734 95.475134 
L 265.024244 95.456626 
L 265.2425 165.105227 
L 265.569882 165.105227 
L 265.788138 95.426484 
L 266.11552 95.41324 
L 266.333775 165.105227 
L 266.552031 165.105227 
L 266.770286 95.385289 
L 267.643306 95.350275 
L 267.861561 165.105227 
L 268.734582 165.105227 
L 268.952837 95.296641 
L 270.917134 95.215015 
L 271.135389 165.105227 
L 271.571899 165.105227 
L 271.790154 95.17858 
L 272.554047 95.14715 
L 272.663175 165.105227 
L 272.88143 95.133521 
L 273.208813 95.119031 
L 273.427068 165.105227 
L 273.645323 165.105227 
L 273.863578 95.093173 
L 274.190961 95.079215 
L 274.300089 165.105227 
L 274.518344 95.065572 
L 275.282237 95.034072 
L 275.391364 165.105227 
L 275.60962 95.020373 
L 275.827875 95.011231 
L 276.04613 165.105227 
L 276.373513 165.105227 
L 276.591768 94.978618 
L 279.101702 94.875641 
L 279.21083 165.105227 
L 279.429085 94.861851 
L 279.756468 94.848439 
L 279.974723 165.105227 
L 280.192978 165.105227 
L 280.411233 94.821853 
L 280.738616 94.807657 
L 280.956871 165.105227 
L 281.175126 94.788778 
L 281.829892 94.762871 
L 282.048147 165.105227 
L 282.921167 165.105227 
L 283.139422 94.7086 
L 283.466805 94.695426 
L 283.575933 165.105227 
L 283.794188 94.681272 
L 284.121571 94.667475 
L 284.339826 165.105227 
L 284.558081 165.105227 
L 284.776336 94.640679 
L 320.788437 93.159699 
L 347.197311 92.084963 
L 398.487273 90.022045 
L 398.487273 90.022045 
" style="fill:none;stroke:#000000;stroke-dasharray:5.55,2.4;stroke-dashoffset:0;stroke-width:1.5;"/>
   </g>
   <g id="patch_3">
    <path d="M 57.6 307.584 
L 57.6 41.472 
" style="fill:none;stroke:#000000;stroke-linecap:square;stroke-linejoin:miter;stroke-width:0.8;"/>
   </g>
   <g id="patch_4">
    <path d="M 414.72 307.584 
L 414.72 41.472 
" style="fill:none;stroke:#000000;stroke-linecap:square;stroke-linejoin:miter;stroke-width:0.8;"/>
   </g>
   <g id="patch_5">
    <path d="M 57.6 307.584 
L 414.72 307.584 
" style="fill:none;stroke:#000000;stroke-linecap:square;stroke-linejoin:miter;stroke-width:0.8;"/>
   </g>
   <g id="patch_6">
    <path d="M 57.6 41.472 
L 414.72 41.472 
" style="fill:none;stroke:#000000;stroke-linecap:square;stroke-linejoin:miter;stroke-width:0.8;"/>
   </g>
   <g id="legend_1">
    <g id="patch_7">
     <path d="M 349.66375 302.584 
L 407.72 302.584 
Q 409.72 302.584 409.72 300.584 
L 409.72 257.549625 
Q 409.72 255.549625 407.72 255.549625 
L 349.66375 255.549625 
Q 347.66375 255.549625 347.66375 257.549625 
L 347.66375 300.584 
Q 347.66375 302.584 349.66375 302.584 
z
" style="fill:#ffffff;opacity:0.8;stroke:#cccccc;stroke-linejoin:miter;"/>
    </g>
    <g id="line2d_28">
     <path d="M 351.66375 263.648062 
L 371.66375 263.648062 
" style="fill:none;stroke:#008000;stroke-linecap:square;stroke-width:1.5;"/>
    </g>
    <g id="line2d_29"/>
    <g id="text_15">
     <!-- accel -->
     <g transform="translate(379.66375 267.148062)scale(0.1 -0.1)">
      <use xlink:href="#DejaVuSans-61"/>
      <use x="61.279297" xlink:href="#DejaVuSans-63"/>
      <use x="116.259766" xlink:href="#DejaVuSans-63"/>
      <use x="171.240234" xlink:href="#DejaVuSans-65"/>
      <use x="232.763672" xlink:href="#DejaVuSans-6c"/>
     </g>
    </g>
    <g id="line2d_30">
     <path d="M 351.66375 278.326188 
L 371.66375 278.326188 
" style="fill:none;stroke:#000000;stroke-dasharray:5.55,2.4;stroke-dashoffset:0;stroke-width:1.5;"/>
    </g>
    <g id="line2d_31"/>
    <g id="text_16">
     <!-- max -->
     <defs>
      <path d="M 54.890625 54.6875 
L 35.109375 28.078125 
L 55.90625 0 
L 45.3125 0 
L 29.390625 21.484375 
L 13.484375 0 
L 2.875 0 
L 24.125 28.609375 
L 4.6875 54.6875 
L 15.28125 54.6875 
L 29.78125 35.203125 
L 44.28125 54.6875 
z
" id="DejaVuSans-78"/>
     </defs>
     <g transform="translate(379.66375 281.826188)scale(0.1 -0.1)">
      <use xlink:href="#DejaVuSans-6d"/>
      <use x="97.412109" xlink:href="#DejaVuSans-61"/>
      <use x="158.691406" xlink:href="#DejaVuSans-78"/>
     </g>
    </g>
    <g id="line2d_32">
     <path d="M 351.66375 293.004312 
L 371.66375 293.004312 
" style="fill:none;stroke:#000000;stroke-dasharray:5.55,2.4;stroke-dashoffset:0;stroke-width:1.5;"/>
    </g>
    <g id="line2d_33"/>
    <g id="text_17">
     <!-- min -->
     <g transform="translate(379.66375 296.504312)scale(0.1 -0.1)">
      <use xlink:href="#DejaVuSans-6d"/>
      <use x="97.412109" xlink:href="#DejaVuSans-69"/>
      <use x="125.195312" xlink:href="#DejaVuSans-6e"/>
     </g>
    </g>
   </g>
  </g>
 </g>
 <defs>
  <clipPath id="p5b191c3ae7">
   <rect height="266.112" width="357.12" x="57.6" y="41.472"/>
  </clipPath>
 </defs>
</svg>
