<?xml version="1.0" encoding="utf-8" standalone="no"?>
<!DOCTYPE svg PUBLIC "-//W3C//DTD SVG 1.1//EN"
  "http://www.w3.org/Graphics/SVG/1.1/DTD/svg11.dtd">
<!-- Created with matplotlib (http://matplotlib.org/) -->
<svg height="345pt" version="1.1" viewBox="0 0 460 345" width="460pt" xmlns="http://www.w3.org/2000/svg" xmlns:xlink="http://www.w3.org/1999/xlink">
 <defs>
  <style type="text/css">
*{stroke-linecap:butt;stroke-linejoin:round;}
  </style>
 </defs>
 <g id="figure_1">
  <g id="patch_1">
   <path d="M 0 345.6 
L 460.8 345.6 
L 460.8 0 
L 0 0 
z
" style="fill:#ffffff;"/>
  </g>
  <g id="axes_1">
   <g id="patch_2">
    <path d="M 57.6 307.584 
L 414.72 307.584 
L 414.72 41.472 
L 57.6 41.472 
z
" style="fill:#ffffff;"/>
   </g>
   <g id="matplotlib.axis_1">
    <g id="xtick_1">
     <g id="line2d_1">
      <path clip-path="url(#p1c626d8885)" d="M 71.104538 307.584 
L 71.104538 41.472 
" style="fill:none;stroke:#b0b0b0;stroke-linecap:square;stroke-width:0.8;"/>
     </g>
     <g id="line2d_2">
      <defs>
       <path d="M 0 0 
L 0 3.5 
" id="md14e6d2249" style="stroke:#000000;stroke-width:0.8;"/>
      </defs>
      <g>
       <use style="stroke:#000000;stroke-width:0.8;" x="71.104538" xlink:href="#md14e6d2249" y="307.584"/>
      </g>
     </g>
     <g id="text_1">
      <!-- 0 -->
      <defs>
       <path d="M 31.78125 66.40625 
Q 24.171875 66.40625 20.328125 58.90625 
Q 16.5 51.421875 16.5 36.375 
Q 16.5 21.390625 20.328125 13.890625 
Q 24.171875 6.390625 31.78125 6.390625 
Q 39.453125 6.390625 43.28125 13.890625 
Q 47.125 21.390625 47.125 36.375 
Q 47.125 51.421875 43.28125 58.90625 
Q 39.453125 66.40625 31.78125 66.40625 
z
M 31.78125 74.21875 
Q 44.046875 74.21875 50.515625 64.515625 
Q 56.984375 54.828125 56.984375 36.375 
Q 56.984375 17.96875 50.515625 8.265625 
Q 44.046875 -1.421875 31.78125 -1.421875 
Q 19.53125 -1.421875 13.0625 8.265625 
Q 6.59375 17.96875 6.59375 36.375 
Q 6.59375 54.828125 13.0625 64.515625 
Q 19.53125 74.21875 31.78125 74.21875 
z
" id="DejaVuSans-30"/>
      </defs>
      <g transform="translate(67.923288 322.182437)scale(0.1 -0.1)">
       <use xlink:href="#DejaVuSans-30"/>
      </g>
     </g>
    </g>
    <g id="xtick_2">
     <g id="line2d_3">
      <path clip-path="url(#p1c626d8885)" d="M 125.668327 307.584 
L 125.668327 41.472 
" style="fill:none;stroke:#b0b0b0;stroke-linecap:square;stroke-width:0.8;"/>
     </g>
     <g id="line2d_4">
      <g>
       <use style="stroke:#000000;stroke-width:0.8;" x="125.668327" xlink:href="#md14e6d2249" y="307.584"/>
      </g>
     </g>
     <g id="text_2">
      <!-- 5 -->
      <defs>
       <path d="M 10.796875 72.90625 
L 49.515625 72.90625 
L 49.515625 64.59375 
L 19.828125 64.59375 
L 19.828125 46.734375 
Q 21.96875 47.46875 24.109375 47.828125 
Q 26.265625 48.1875 28.421875 48.1875 
Q 40.625 48.1875 47.75 41.5 
Q 54.890625 34.8125 54.890625 23.390625 
Q 54.890625 11.625 47.5625 5.09375 
Q 40.234375 -1.421875 26.90625 -1.421875 
Q 22.3125 -1.421875 17.546875 -0.640625 
Q 12.796875 0.140625 7.71875 1.703125 
L 7.71875 11.625 
Q 12.109375 9.234375 16.796875 8.0625 
Q 21.484375 6.890625 26.703125 6.890625 
Q 35.15625 6.890625 40.078125 11.328125 
Q 45.015625 15.765625 45.015625 23.390625 
Q 45.015625 31 40.078125 35.4375 
Q 35.15625 39.890625 26.703125 39.890625 
Q 22.75 39.890625 18.8125 39.015625 
Q 14.890625 38.140625 10.796875 36.28125 
z
" id="DejaVuSans-35"/>
      </defs>
      <g transform="translate(122.487077 322.182437)scale(0.1 -0.1)">
       <use xlink:href="#DejaVuSans-35"/>
      </g>
     </g>
    </g>
    <g id="xtick_3">
     <g id="line2d_5">
      <path clip-path="url(#p1c626d8885)" d="M 180.232116 307.584 
L 180.232116 41.472 
" style="fill:none;stroke:#b0b0b0;stroke-linecap:square;stroke-width:0.8;"/>
     </g>
     <g id="line2d_6">
      <g>
       <use style="stroke:#000000;stroke-width:0.8;" x="180.232116" xlink:href="#md14e6d2249" y="307.584"/>
      </g>
     </g>
     <g id="text_3">
      <!-- 10 -->
      <defs>
       <path d="M 12.40625 8.296875 
L 28.515625 8.296875 
L 28.515625 63.921875 
L 10.984375 60.40625 
L 10.984375 69.390625 
L 28.421875 72.90625 
L 38.28125 72.90625 
L 38.28125 8.296875 
L 54.390625 8.296875 
L 54.390625 0 
L 12.40625 0 
z
" id="DejaVuSans-31"/>
      </defs>
      <g transform="translate(173.869616 322.182437)scale(0.1 -0.1)">
       <use xlink:href="#DejaVuSans-31"/>
       <use x="63.623047" xlink:href="#DejaVuSans-30"/>
      </g>
     </g>
    </g>
    <g id="xtick_4">
     <g id="line2d_7">
      <path clip-path="url(#p1c626d8885)" d="M 234.795905 307.584 
L 234.795905 41.472 
" style="fill:none;stroke:#b0b0b0;stroke-linecap:square;stroke-width:0.8;"/>
     </g>
     <g id="line2d_8">
      <g>
       <use style="stroke:#000000;stroke-width:0.8;" x="234.795905" xlink:href="#md14e6d2249" y="307.584"/>
      </g>
     </g>
     <g id="text_4">
      <!-- 15 -->
      <g transform="translate(228.433405 322.182437)scale(0.1 -0.1)">
       <use xlink:href="#DejaVuSans-31"/>
       <use x="63.623047" xlink:href="#DejaVuSans-35"/>
      </g>
     </g>
    </g>
    <g id="xtick_5">
     <g id="line2d_9">
      <path clip-path="url(#p1c626d8885)" d="M 289.359694 307.584 
L 289.359694 41.472 
" style="fill:none;stroke:#b0b0b0;stroke-linecap:square;stroke-width:0.8;"/>
     </g>
     <g id="line2d_10">
      <g>
       <use style="stroke:#000000;stroke-width:0.8;" x="289.359694" xlink:href="#md14e6d2249" y="307.584"/>
      </g>
     </g>
     <g id="text_5">
      <!-- 20 -->
      <defs>
       <path d="M 19.1875 8.296875 
L 53.609375 8.296875 
L 53.609375 0 
L 7.328125 0 
L 7.328125 8.296875 
Q 12.9375 14.109375 22.625 23.890625 
Q 32.328125 33.6875 34.8125 36.53125 
Q 39.546875 41.84375 41.421875 45.53125 
Q 43.3125 49.21875 43.3125 52.78125 
Q 43.3125 58.59375 39.234375 62.25 
Q 35.15625 65.921875 28.609375 65.921875 
Q 23.96875 65.921875 18.8125 64.3125 
Q 13.671875 62.703125 7.8125 59.421875 
L 7.8125 69.390625 
Q 13.765625 71.78125 18.9375 73 
Q 24.125 74.21875 28.421875 74.21875 
Q 39.75 74.21875 46.484375 68.546875 
Q 53.21875 62.890625 53.21875 53.421875 
Q 53.21875 48.921875 51.53125 44.890625 
Q 49.859375 40.875 45.40625 35.40625 
Q 44.1875 33.984375 37.640625 27.21875 
Q 31.109375 20.453125 19.1875 8.296875 
z
" id="DejaVuSans-32"/>
      </defs>
      <g transform="translate(282.997194 322.182437)scale(0.1 -0.1)">
       <use xlink:href="#DejaVuSans-32"/>
       <use x="63.623047" xlink:href="#DejaVuSans-30"/>
      </g>
     </g>
    </g>
    <g id="xtick_6">
     <g id="line2d_11">
      <path clip-path="url(#p1c626d8885)" d="M 343.923484 307.584 
L 343.923484 41.472 
" style="fill:none;stroke:#b0b0b0;stroke-linecap:square;stroke-width:0.8;"/>
     </g>
     <g id="line2d_12">
      <g>
       <use style="stroke:#000000;stroke-width:0.8;" x="343.923484" xlink:href="#md14e6d2249" y="307.584"/>
      </g>
     </g>
     <g id="text_6">
      <!-- 25 -->
      <g transform="translate(337.560984 322.182437)scale(0.1 -0.1)">
       <use xlink:href="#DejaVuSans-32"/>
       <use x="63.623047" xlink:href="#DejaVuSans-35"/>
      </g>
     </g>
    </g>
    <g id="xtick_7">
     <g id="line2d_13">
      <path clip-path="url(#p1c626d8885)" d="M 398.487273 307.584 
L 398.487273 41.472 
" style="fill:none;stroke:#b0b0b0;stroke-linecap:square;stroke-width:0.8;"/>
     </g>
     <g id="line2d_14">
      <g>
       <use style="stroke:#000000;stroke-width:0.8;" x="398.487273" xlink:href="#md14e6d2249" y="307.584"/>
      </g>
     </g>
     <g id="text_7">
      <!-- 30 -->
      <defs>
       <path d="M 40.578125 39.3125 
Q 47.65625 37.796875 51.625 33 
Q 55.609375 28.21875 55.609375 21.1875 
Q 55.609375 10.40625 48.1875 4.484375 
Q 40.765625 -1.421875 27.09375 -1.421875 
Q 22.515625 -1.421875 17.65625 -0.515625 
Q 12.796875 0.390625 7.625 2.203125 
L 7.625 11.71875 
Q 11.71875 9.328125 16.59375 8.109375 
Q 21.484375 6.890625 26.8125 6.890625 
Q 36.078125 6.890625 40.9375 10.546875 
Q 45.796875 14.203125 45.796875 21.1875 
Q 45.796875 27.640625 41.28125 31.265625 
Q 36.765625 34.90625 28.71875 34.90625 
L 20.21875 34.90625 
L 20.21875 43.015625 
L 29.109375 43.015625 
Q 36.375 43.015625 40.234375 45.921875 
Q 44.09375 48.828125 44.09375 54.296875 
Q 44.09375 59.90625 40.109375 62.90625 
Q 36.140625 65.921875 28.71875 65.921875 
Q 24.65625 65.921875 20.015625 65.03125 
Q 15.375 64.15625 9.8125 62.3125 
L 9.8125 71.09375 
Q 15.4375 72.65625 20.34375 73.4375 
Q 25.25 74.21875 29.59375 74.21875 
Q 40.828125 74.21875 47.359375 69.109375 
Q 53.90625 64.015625 53.90625 55.328125 
Q 53.90625 49.265625 50.4375 45.09375 
Q 46.96875 40.921875 40.578125 39.3125 
z
" id="DejaVuSans-33"/>
      </defs>
      <g transform="translate(392.124773 322.182437)scale(0.1 -0.1)">
       <use xlink:href="#DejaVuSans-33"/>
       <use x="63.623047" xlink:href="#DejaVuSans-30"/>
      </g>
     </g>
    </g>
    <g id="text_8">
     <!-- Time [s] -->
     <defs>
      <path d="M -0.296875 72.90625 
L 61.375 72.90625 
L 61.375 64.59375 
L 35.5 64.59375 
L 35.5 0 
L 25.59375 0 
L 25.59375 64.59375 
L -0.296875 64.59375 
z
" id="DejaVuSans-54"/>
      <path d="M 9.421875 54.6875 
L 18.40625 54.6875 
L 18.40625 0 
L 9.421875 0 
z
M 9.421875 75.984375 
L 18.40625 75.984375 
L 18.40625 64.59375 
L 9.421875 64.59375 
z
" id="DejaVuSans-69"/>
      <path d="M 52 44.1875 
Q 55.375 50.25 60.0625 53.125 
Q 64.75 56 71.09375 56 
Q 79.640625 56 84.28125 50.015625 
Q 88.921875 44.046875 88.921875 33.015625 
L 88.921875 0 
L 79.890625 0 
L 79.890625 32.71875 
Q 79.890625 40.578125 77.09375 44.375 
Q 74.3125 48.1875 68.609375 48.1875 
Q 61.625 48.1875 57.5625 43.546875 
Q 53.515625 38.921875 53.515625 30.90625 
L 53.515625 0 
L 44.484375 0 
L 44.484375 32.71875 
Q 44.484375 40.625 41.703125 44.40625 
Q 38.921875 48.1875 33.109375 48.1875 
Q 26.21875 48.1875 22.15625 43.53125 
Q 18.109375 38.875 18.109375 30.90625 
L 18.109375 0 
L 9.078125 0 
L 9.078125 54.6875 
L 18.109375 54.6875 
L 18.109375 46.1875 
Q 21.1875 51.21875 25.484375 53.609375 
Q 29.78125 56 35.6875 56 
Q 41.65625 56 45.828125 52.96875 
Q 50 49.953125 52 44.1875 
z
" id="DejaVuSans-6d"/>
      <path d="M 56.203125 29.59375 
L 56.203125 25.203125 
L 14.890625 25.203125 
Q 15.484375 15.921875 20.484375 11.0625 
Q 25.484375 6.203125 34.421875 6.203125 
Q 39.59375 6.203125 44.453125 7.46875 
Q 49.3125 8.734375 54.109375 11.28125 
L 54.109375 2.78125 
Q 49.265625 0.734375 44.1875 -0.34375 
Q 39.109375 -1.421875 33.890625 -1.421875 
Q 20.796875 -1.421875 13.15625 6.1875 
Q 5.515625 13.8125 5.515625 26.8125 
Q 5.515625 40.234375 12.765625 48.109375 
Q 20.015625 56 32.328125 56 
Q 43.359375 56 49.78125 48.890625 
Q 56.203125 41.796875 56.203125 29.59375 
z
M 47.21875 32.234375 
Q 47.125 39.59375 43.09375 43.984375 
Q 39.0625 48.390625 32.421875 48.390625 
Q 24.90625 48.390625 20.390625 44.140625 
Q 15.875 39.890625 15.1875 32.171875 
z
" id="DejaVuSans-65"/>
      <path id="DejaVuSans-20"/>
      <path d="M 8.59375 75.984375 
L 29.296875 75.984375 
L 29.296875 69 
L 17.578125 69 
L 17.578125 -6.203125 
L 29.296875 -6.203125 
L 29.296875 -13.1875 
L 8.59375 -13.1875 
z
" id="DejaVuSans-5b"/>
      <path d="M 44.28125 53.078125 
L 44.28125 44.578125 
Q 40.484375 46.53125 36.375 47.5 
Q 32.28125 48.484375 27.875 48.484375 
Q 21.1875 48.484375 17.84375 46.4375 
Q 14.5 44.390625 14.5 40.28125 
Q 14.5 37.15625 16.890625 35.375 
Q 19.28125 33.59375 26.515625 31.984375 
L 29.59375 31.296875 
Q 39.15625 29.25 43.1875 25.515625 
Q 47.21875 21.78125 47.21875 15.09375 
Q 47.21875 7.46875 41.1875 3.015625 
Q 35.15625 -1.421875 24.609375 -1.421875 
Q 20.21875 -1.421875 15.453125 -0.5625 
Q 10.6875 0.296875 5.421875 2 
L 5.421875 11.28125 
Q 10.40625 8.6875 15.234375 7.390625 
Q 20.0625 6.109375 24.8125 6.109375 
Q 31.15625 6.109375 34.5625 8.28125 
Q 37.984375 10.453125 37.984375 14.40625 
Q 37.984375 18.0625 35.515625 20.015625 
Q 33.0625 21.96875 24.703125 23.78125 
L 21.578125 24.515625 
Q 13.234375 26.265625 9.515625 29.90625 
Q 5.8125 33.546875 5.8125 39.890625 
Q 5.8125 47.609375 11.28125 51.796875 
Q 16.75 56 26.8125 56 
Q 31.78125 56 36.171875 55.265625 
Q 40.578125 54.546875 44.28125 53.078125 
z
" id="DejaVuSans-73"/>
      <path d="M 30.421875 75.984375 
L 30.421875 -13.1875 
L 9.71875 -13.1875 
L 9.71875 -6.203125 
L 21.390625 -6.203125 
L 21.390625 69 
L 9.71875 69 
L 9.71875 75.984375 
z
" id="DejaVuSans-5d"/>
     </defs>
     <g transform="translate(215.677188 335.860562)scale(0.1 -0.1)">
      <use xlink:href="#DejaVuSans-54"/>
      <use x="61.037109" xlink:href="#DejaVuSans-69"/>
      <use x="88.820312" xlink:href="#DejaVuSans-6d"/>
      <use x="186.232422" xlink:href="#DejaVuSans-65"/>
      <use x="247.755859" xlink:href="#DejaVuSans-20"/>
      <use x="279.542969" xlink:href="#DejaVuSans-5b"/>
      <use x="318.556641" xlink:href="#DejaVuSans-73"/>
      <use x="370.65625" xlink:href="#DejaVuSans-5d"/>
     </g>
    </g>
   </g>
   <g id="matplotlib.axis_2">
    <g id="ytick_1">
     <g id="line2d_15">
      <path clip-path="url(#p1c626d8885)" d="M 57.6 285.432398 
L 414.72 285.432398 
" style="fill:none;stroke:#b0b0b0;stroke-linecap:square;stroke-width:0.8;"/>
     </g>
     <g id="line2d_16">
      <defs>
       <path d="M 0 0 
L -3.5 0 
" id="m909add421f" style="stroke:#000000;stroke-width:0.8;"/>
      </defs>
      <g>
       <use style="stroke:#000000;stroke-width:0.8;" x="57.6" xlink:href="#m909add421f" y="285.432398"/>
      </g>
     </g>
     <g id="text_9">
      <!-- 20 -->
      <g transform="translate(37.875 289.231617)scale(0.1 -0.1)">
       <use xlink:href="#DejaVuSans-32"/>
       <use x="63.623047" xlink:href="#DejaVuSans-30"/>
      </g>
     </g>
    </g>
    <g id="ytick_2">
     <g id="line2d_17">
      <path clip-path="url(#p1c626d8885)" d="M 57.6 251.937999 
L 414.72 251.937999 
" style="fill:none;stroke:#b0b0b0;stroke-linecap:square;stroke-width:0.8;"/>
     </g>
     <g id="line2d_18">
      <g>
       <use style="stroke:#000000;stroke-width:0.8;" x="57.6" xlink:href="#m909add421f" y="251.937999"/>
      </g>
     </g>
     <g id="text_10">
      <!-- 40 -->
      <defs>
       <path d="M 37.796875 64.3125 
L 12.890625 25.390625 
L 37.796875 25.390625 
z
M 35.203125 72.90625 
L 47.609375 72.90625 
L 47.609375 25.390625 
L 58.015625 25.390625 
L 58.015625 17.1875 
L 47.609375 17.1875 
L 47.609375 0 
L 37.796875 0 
L 37.796875 17.1875 
L 4.890625 17.1875 
L 4.890625 26.703125 
z
" id="DejaVuSans-34"/>
      </defs>
      <g transform="translate(37.875 255.737218)scale(0.1 -0.1)">
       <use xlink:href="#DejaVuSans-34"/>
       <use x="63.623047" xlink:href="#DejaVuSans-30"/>
      </g>
     </g>
    </g>
    <g id="ytick_3">
     <g id="line2d_19">
      <path clip-path="url(#p1c626d8885)" d="M 57.6 218.4436 
L 414.72 218.4436 
" style="fill:none;stroke:#b0b0b0;stroke-linecap:square;stroke-width:0.8;"/>
     </g>
     <g id="line2d_20">
      <g>
       <use style="stroke:#000000;stroke-width:0.8;" x="57.6" xlink:href="#m909add421f" y="218.4436"/>
      </g>
     </g>
     <g id="text_11">
      <!-- 60 -->
      <defs>
       <path d="M 33.015625 40.375 
Q 26.375 40.375 22.484375 35.828125 
Q 18.609375 31.296875 18.609375 23.390625 
Q 18.609375 15.53125 22.484375 10.953125 
Q 26.375 6.390625 33.015625 6.390625 
Q 39.65625 6.390625 43.53125 10.953125 
Q 47.40625 15.53125 47.40625 23.390625 
Q 47.40625 31.296875 43.53125 35.828125 
Q 39.65625 40.375 33.015625 40.375 
z
M 52.59375 71.296875 
L 52.59375 62.3125 
Q 48.875 64.0625 45.09375 64.984375 
Q 41.3125 65.921875 37.59375 65.921875 
Q 27.828125 65.921875 22.671875 59.328125 
Q 17.53125 52.734375 16.796875 39.40625 
Q 19.671875 43.65625 24.015625 45.921875 
Q 28.375 48.1875 33.59375 48.1875 
Q 44.578125 48.1875 50.953125 41.515625 
Q 57.328125 34.859375 57.328125 23.390625 
Q 57.328125 12.15625 50.6875 5.359375 
Q 44.046875 -1.421875 33.015625 -1.421875 
Q 20.359375 -1.421875 13.671875 8.265625 
Q 6.984375 17.96875 6.984375 36.375 
Q 6.984375 53.65625 15.1875 63.9375 
Q 23.390625 74.21875 37.203125 74.21875 
Q 40.921875 74.21875 44.703125 73.484375 
Q 48.484375 72.75 52.59375 71.296875 
z
" id="DejaVuSans-36"/>
      </defs>
      <g transform="translate(37.875 222.242819)scale(0.1 -0.1)">
       <use xlink:href="#DejaVuSans-36"/>
       <use x="63.623047" xlink:href="#DejaVuSans-30"/>
      </g>
     </g>
    </g>
    <g id="ytick_4">
     <g id="line2d_21">
      <path clip-path="url(#p1c626d8885)" d="M 57.6 184.949201 
L 414.72 184.949201 
" style="fill:none;stroke:#b0b0b0;stroke-linecap:square;stroke-width:0.8;"/>
     </g>
     <g id="line2d_22">
      <g>
       <use style="stroke:#000000;stroke-width:0.8;" x="57.6" xlink:href="#m909add421f" y="184.949201"/>
      </g>
     </g>
     <g id="text_12">
      <!-- 80 -->
      <defs>
       <path d="M 31.78125 34.625 
Q 24.75 34.625 20.71875 30.859375 
Q 16.703125 27.09375 16.703125 20.515625 
Q 16.703125 13.921875 20.71875 10.15625 
Q 24.75 6.390625 31.78125 6.390625 
Q 38.8125 6.390625 42.859375 10.171875 
Q 46.921875 13.96875 46.921875 20.515625 
Q 46.921875 27.09375 42.890625 30.859375 
Q 38.875 34.625 31.78125 34.625 
z
M 21.921875 38.8125 
Q 15.578125 40.375 12.03125 44.71875 
Q 8.5 49.078125 8.5 55.328125 
Q 8.5 64.0625 14.71875 69.140625 
Q 20.953125 74.21875 31.78125 74.21875 
Q 42.671875 74.21875 48.875 69.140625 
Q 55.078125 64.0625 55.078125 55.328125 
Q 55.078125 49.078125 51.53125 44.71875 
Q 48 40.375 41.703125 38.8125 
Q 48.828125 37.15625 52.796875 32.3125 
Q 56.78125 27.484375 56.78125 20.515625 
Q 56.78125 9.90625 50.3125 4.234375 
Q 43.84375 -1.421875 31.78125 -1.421875 
Q 19.734375 -1.421875 13.25 4.234375 
Q 6.78125 9.90625 6.78125 20.515625 
Q 6.78125 27.484375 10.78125 32.3125 
Q 14.796875 37.15625 21.921875 38.8125 
z
M 18.3125 54.390625 
Q 18.3125 48.734375 21.84375 45.5625 
Q 25.390625 42.390625 31.78125 42.390625 
Q 38.140625 42.390625 41.71875 45.5625 
Q 45.3125 48.734375 45.3125 54.390625 
Q 45.3125 60.0625 41.71875 63.234375 
Q 38.140625 66.40625 31.78125 66.40625 
Q 25.390625 66.40625 21.84375 63.234375 
Q 18.3125 60.0625 18.3125 54.390625 
z
" id="DejaVuSans-38"/>
      </defs>
      <g transform="translate(37.875 188.74842)scale(0.1 -0.1)">
       <use xlink:href="#DejaVuSans-38"/>
       <use x="63.623047" xlink:href="#DejaVuSans-30"/>
      </g>
     </g>
    </g>
    <g id="ytick_5">
     <g id="line2d_23">
      <path clip-path="url(#p1c626d8885)" d="M 57.6 151.454802 
L 414.72 151.454802 
" style="fill:none;stroke:#b0b0b0;stroke-linecap:square;stroke-width:0.8;"/>
     </g>
     <g id="line2d_24">
      <g>
       <use style="stroke:#000000;stroke-width:0.8;" x="57.6" xlink:href="#m909add421f" y="151.454802"/>
      </g>
     </g>
     <g id="text_13">
      <!-- 100 -->
      <g transform="translate(31.5125 155.254021)scale(0.1 -0.1)">
       <use xlink:href="#DejaVuSans-31"/>
       <use x="63.623047" xlink:href="#DejaVuSans-30"/>
       <use x="127.246094" xlink:href="#DejaVuSans-30"/>
      </g>
     </g>
    </g>
    <g id="ytick_6">
     <g id="line2d_25">
      <path clip-path="url(#p1c626d8885)" d="M 57.6 117.960403 
L 414.72 117.960403 
" style="fill:none;stroke:#b0b0b0;stroke-linecap:square;stroke-width:0.8;"/>
     </g>
     <g id="line2d_26">
      <g>
       <use style="stroke:#000000;stroke-width:0.8;" x="57.6" xlink:href="#m909add421f" y="117.960403"/>
      </g>
     </g>
     <g id="text_14">
      <!-- 120 -->
      <g transform="translate(31.5125 121.759622)scale(0.1 -0.1)">
       <use xlink:href="#DejaVuSans-31"/>
       <use x="63.623047" xlink:href="#DejaVuSans-32"/>
       <use x="127.246094" xlink:href="#DejaVuSans-30"/>
      </g>
     </g>
    </g>
    <g id="ytick_7">
     <g id="line2d_27">
      <path clip-path="url(#p1c626d8885)" d="M 57.6 84.466004 
L 414.72 84.466004 
" style="fill:none;stroke:#b0b0b0;stroke-linecap:square;stroke-width:0.8;"/>
     </g>
     <g id="line2d_28">
      <g>
       <use style="stroke:#000000;stroke-width:0.8;" x="57.6" xlink:href="#m909add421f" y="84.466004"/>
      </g>
     </g>
     <g id="text_15">
      <!-- 140 -->
      <g transform="translate(31.5125 88.265222)scale(0.1 -0.1)">
       <use xlink:href="#DejaVuSans-31"/>
       <use x="63.623047" xlink:href="#DejaVuSans-34"/>
       <use x="127.246094" xlink:href="#DejaVuSans-30"/>
      </g>
     </g>
    </g>
    <g id="ytick_8">
     <g id="line2d_29">
      <path clip-path="url(#p1c626d8885)" d="M 57.6 50.971605 
L 414.72 50.971605 
" style="fill:none;stroke:#b0b0b0;stroke-linecap:square;stroke-width:0.8;"/>
     </g>
     <g id="line2d_30">
      <g>
       <use style="stroke:#000000;stroke-width:0.8;" x="57.6" xlink:href="#m909add421f" y="50.971605"/>
      </g>
     </g>
     <g id="text_16">
      <!-- 160 -->
      <g transform="translate(31.5125 54.770823)scale(0.1 -0.1)">
       <use xlink:href="#DejaVuSans-31"/>
       <use x="63.623047" xlink:href="#DejaVuSans-36"/>
       <use x="127.246094" xlink:href="#DejaVuSans-30"/>
      </g>
     </g>
    </g>
    <g id="text_17">
     <!-- Speed [mph] -->
     <defs>
      <path d="M 53.515625 70.515625 
L 53.515625 60.890625 
Q 47.90625 63.578125 42.921875 64.890625 
Q 37.9375 66.21875 33.296875 66.21875 
Q 25.25 66.21875 20.875 63.09375 
Q 16.5 59.96875 16.5 54.203125 
Q 16.5 49.359375 19.40625 46.890625 
Q 22.3125 44.4375 30.421875 42.921875 
L 36.375 41.703125 
Q 47.40625 39.59375 52.65625 34.296875 
Q 57.90625 29 57.90625 20.125 
Q 57.90625 9.515625 50.796875 4.046875 
Q 43.703125 -1.421875 29.984375 -1.421875 
Q 24.8125 -1.421875 18.96875 -0.25 
Q 13.140625 0.921875 6.890625 3.21875 
L 6.890625 13.375 
Q 12.890625 10.015625 18.65625 8.296875 
Q 24.421875 6.59375 29.984375 6.59375 
Q 38.421875 6.59375 43.015625 9.90625 
Q 47.609375 13.234375 47.609375 19.390625 
Q 47.609375 24.75 44.3125 27.78125 
Q 41.015625 30.8125 33.5 32.328125 
L 27.484375 33.5 
Q 16.453125 35.6875 11.515625 40.375 
Q 6.59375 45.0625 6.59375 53.421875 
Q 6.59375 63.09375 13.40625 68.65625 
Q 20.21875 74.21875 32.171875 74.21875 
Q 37.3125 74.21875 42.625 73.28125 
Q 47.953125 72.359375 53.515625 70.515625 
z
" id="DejaVuSans-53"/>
      <path d="M 18.109375 8.203125 
L 18.109375 -20.796875 
L 9.078125 -20.796875 
L 9.078125 54.6875 
L 18.109375 54.6875 
L 18.109375 46.390625 
Q 20.953125 51.265625 25.265625 53.625 
Q 29.59375 56 35.59375 56 
Q 45.5625 56 51.78125 48.09375 
Q 58.015625 40.1875 58.015625 27.296875 
Q 58.015625 14.40625 51.78125 6.484375 
Q 45.5625 -1.421875 35.59375 -1.421875 
Q 29.59375 -1.421875 25.265625 0.953125 
Q 20.953125 3.328125 18.109375 8.203125 
z
M 48.6875 27.296875 
Q 48.6875 37.203125 44.609375 42.84375 
Q 40.53125 48.484375 33.40625 48.484375 
Q 26.265625 48.484375 22.1875 42.84375 
Q 18.109375 37.203125 18.109375 27.296875 
Q 18.109375 17.390625 22.1875 11.75 
Q 26.265625 6.109375 33.40625 6.109375 
Q 40.53125 6.109375 44.609375 11.75 
Q 48.6875 17.390625 48.6875 27.296875 
z
" id="DejaVuSans-70"/>
      <path d="M 45.40625 46.390625 
L 45.40625 75.984375 
L 54.390625 75.984375 
L 54.390625 0 
L 45.40625 0 
L 45.40625 8.203125 
Q 42.578125 3.328125 38.25 0.953125 
Q 33.9375 -1.421875 27.875 -1.421875 
Q 17.96875 -1.421875 11.734375 6.484375 
Q 5.515625 14.40625 5.515625 27.296875 
Q 5.515625 40.1875 11.734375 48.09375 
Q 17.96875 56 27.875 56 
Q 33.9375 56 38.25 53.625 
Q 42.578125 51.265625 45.40625 46.390625 
z
M 14.796875 27.296875 
Q 14.796875 17.390625 18.875 11.75 
Q 22.953125 6.109375 30.078125 6.109375 
Q 37.203125 6.109375 41.296875 11.75 
Q 45.40625 17.390625 45.40625 27.296875 
Q 45.40625 37.203125 41.296875 42.84375 
Q 37.203125 48.484375 30.078125 48.484375 
Q 22.953125 48.484375 18.875 42.84375 
Q 14.796875 37.203125 14.796875 27.296875 
z
" id="DejaVuSans-64"/>
      <path d="M 54.890625 33.015625 
L 54.890625 0 
L 45.90625 0 
L 45.90625 32.71875 
Q 45.90625 40.484375 42.875 44.328125 
Q 39.84375 48.1875 33.796875 48.1875 
Q 26.515625 48.1875 22.3125 43.546875 
Q 18.109375 38.921875 18.109375 30.90625 
L 18.109375 0 
L 9.078125 0 
L 9.078125 75.984375 
L 18.109375 75.984375 
L 18.109375 46.1875 
Q 21.34375 51.125 25.703125 53.5625 
Q 30.078125 56 35.796875 56 
Q 45.21875 56 50.046875 50.171875 
Q 54.890625 44.34375 54.890625 33.015625 
z
" id="DejaVuSans-68"/>
     </defs>
     <g transform="translate(25.432812 206.907688)rotate(-90)scale(0.1 -0.1)">
      <use xlink:href="#DejaVuSans-53"/>
      <use x="63.476562" xlink:href="#DejaVuSans-70"/>
      <use x="126.953125" xlink:href="#DejaVuSans-65"/>
      <use x="188.476562" xlink:href="#DejaVuSans-65"/>
      <use x="250" xlink:href="#DejaVuSans-64"/>
      <use x="313.476562" xlink:href="#DejaVuSans-20"/>
      <use x="345.263672" xlink:href="#DejaVuSans-5b"/>
      <use x="384.277344" xlink:href="#DejaVuSans-6d"/>
      <use x="481.689453" xlink:href="#DejaVuSans-70"/>
      <use x="545.166016" xlink:href="#DejaVuSans-68"/>
      <use x="608.544922" xlink:href="#DejaVuSans-5d"/>
     </g>
    </g>
   </g>
   <g id="line2d_31">
    <path clip-path="url(#p1c626d8885)" d="M 73.832727 218.608192 
L 97.513412 220.146731 
L 101.114622 220.77173 
L 105.152342 221.704606 
L 109.626573 222.963606 
L 114.973824 224.699739 
L 121.848862 227.17082 
L 131.561216 230.686673 
L 135.708064 231.868038 
L 140.618805 233.02565 
L 146.293439 234.106614 
L 152.622839 235.067443 
L 168.77372 237.388025 
L 175.757885 238.870379 
L 185.361112 241.169511 
L 216.135089 248.649966 
L 226.502209 250.772736 
L 241.34356 253.551634 
L 247.236449 254.511495 
L 251.492425 254.951854 
L 256.294038 255.231118 
L 380.917733 260.653637 
L 398.487273 261.40106 
L 398.487273 261.40106 
" style="fill:none;stroke:#ff0000;stroke-linecap:square;stroke-width:1.5;"/>
   </g>
   <g id="line2d_32">
    <path clip-path="url(#p1c626d8885)" d="M 73.832727 295.488 
L 74.378365 254.588598 
L 74.924003 230.924755 
L 75.360513 219.763364 
L 75.797024 213.035615 
L 76.233534 209.234104 
L 76.670044 207.34014 
L 76.779172 207.34014 
L 76.997427 206.747466 
L 77.32481 206.634161 
L 77.652193 206.850795 
L 78.088703 207.466199 
L 78.961723 209.222507 
L 80.707765 212.785355 
L 81.79904 214.516054 
L 82.890316 215.840595 
L 83.981592 216.833561 
L 85.181995 217.634659 
L 85.945888 217.945084 
L 99.914218 222.936209 
L 117.265503 229.112548 
L 125.777455 231.914384 
L 156.442304 234.556992 
L 157.53358 234.724144 
L 158.733983 234.963572 
L 176.194396 239.661951 
L 187.107154 242.360493 
L 198.019911 244.824688 
L 209.150924 247.106217 
L 221.04583 249.333785 
L 221.591468 249.432335 
L 244.180877 253.40918 
L 244.835642 253.41396 
L 245.490408 253.44192 
L 254.329742 253.336647 
L 254.87538 253.323714 
L 259.131355 253.221685 
L 259.786121 253.18137 
L 264.478607 253.085536 
L 265.351627 253.005915 
L 269.498475 252.899628 
L 270.262368 252.843229 
L 274.845727 252.740443 
L 275.60962 252.682729 
L 280.192978 252.580536 
L 281.065998 252.502037 
L 285.103719 252.399215 
L 285.758484 252.370133 
L 304.637555 253.177941 
L 325.699178 254.073679 
L 363.89383 255.682478 
L 388.774918 256.721461 
L 398.487273 257.123732 
L 398.487273 257.123732 
" style="fill:none;stroke:#bfbf00;stroke-dasharray:5.55,2.4;stroke-dashoffset:0;stroke-width:1.5;"/>
   </g>
   <g id="line2d_33">
    <path clip-path="url(#p1c626d8885)" d="M 73.832727 112.883496 
L 75.033131 112.883496 
L 75.251386 268.624675 
L 75.578769 268.624675 
L 75.797024 241.394801 
L 76.124406 241.394801 
L 76.342662 225.888227 
L 76.779172 225.888227 
L 76.997427 217.413281 
L 77.215682 217.413281 
L 77.433937 213.051964 
L 77.76132 213.051964 
L 77.979575 211.244188 
L 78.306958 211.244188 
L 78.525213 210.849612 
L 78.852596 210.849612 
L 79.070851 211.233805 
L 79.398234 211.233805 
L 79.616489 211.928566 
L 79.943872 211.928566 
L 80.162127 212.88414 
L 80.48951 212.88414 
L 80.707765 213.884302 
L 81.035147 213.884302 
L 81.253403 214.792574 
L 81.580785 214.792574 
L 81.79904 215.707734 
L 82.126423 215.707734 
L 82.344678 216.547317 
L 82.672061 216.547317 
L 82.890316 217.306736 
L 83.217699 217.306736 
L 83.435954 217.904534 
L 83.763337 217.904534 
L 83.981592 218.516636 
L 84.308975 218.516636 
L 84.52723 219.065366 
L 84.854613 219.065366 
L 85.072868 219.558062 
L 85.509378 219.558062 
L 85.727633 219.916211 
L 85.945888 219.916211 
L 86.164144 220.298282 
L 86.491526 220.298282 
L 86.709782 220.664819 
L 87.037164 220.664819 
L 87.255419 220.913743 
L 87.582802 220.913743 
L 87.801057 221.222817 
L 88.12844 221.222817 
L 88.346695 221.508482 
L 88.674078 221.508482 
L 88.892333 221.777549 
L 89.219716 221.777549 
L 89.437971 221.944051 
L 89.765354 221.944051 
L 89.983609 222.184329 
L 90.310992 222.184329 
L 90.529247 222.412531 
L 90.856629 222.412531 
L 91.074885 222.545793 
L 91.402267 222.545793 
L 91.620523 222.756517 
L 91.947905 222.756517 
L 92.16616 222.96104 
L 92.493543 222.96104 
L 92.711798 223.160603 
L 93.584819 223.249563 
L 93.803074 223.44141 
L 94.130457 223.44141 
L 94.348712 223.629584 
L 94.676095 223.629584 
L 94.89435 223.815714 
L 95.767371 223.91442 
L 95.985626 224.097571 
L 96.858646 224.193412 
L 97.076901 224.353926 
L 97.949922 224.454383 
L 98.168177 224.649531 
L 98.49556 224.649531 
L 98.713815 224.766815 
L 99.586836 224.868952 
L 99.805091 224.999755 
L 100.132474 224.999755 
L 100.350729 225.13446 
L 100.678112 225.13446 
L 100.896367 225.274431 
L 101.223749 225.274431 
L 101.442005 225.482076 
L 101.769387 225.482076 
L 101.987642 225.631493 
L 102.315025 225.631493 
L 102.53328 225.761225 
L 102.860663 225.761225 
L 103.078918 225.918159 
L 103.951939 225.99365 
L 104.170194 226.135629 
L 104.497577 226.135629 
L 104.715832 226.304475 
L 105.043215 226.304475 
L 105.26147 226.45427 
L 105.588853 226.45427 
L 105.807108 226.631126 
L 106.13449 226.631126 
L 106.352746 226.787581 
L 107.225766 226.863473 
L 107.444021 227.050875 
L 107.771404 227.050875 
L 107.989659 227.217162 
L 108.86268 227.302614 
L 109.080935 227.498519 
L 109.408318 227.498519 
L 109.626573 227.673553 
L 110.499594 227.770165 
L 110.717849 227.952416 
L 111.590869 228.052823 
L 111.809125 228.240289 
L 112.682145 228.345784 
L 112.9004 228.538652 
L 113.227783 228.538652 
L 113.446038 228.650835 
L 113.773421 228.650835 
L 113.991676 228.848655 
L 114.319059 228.848655 
L 114.537314 228.965975 
L 114.864697 228.965975 
L 115.082952 229.085267 
L 115.410335 229.085267 
L 115.62859 229.290033 
L 115.955972 229.290033 
L 116.174228 229.414548 
L 116.50161 229.414548 
L 116.719866 229.597742 
L 117.047248 229.597742 
L 117.265503 229.726566 
L 117.592886 229.726566 
L 117.811141 229.857941 
L 118.138524 229.857941 
L 118.356779 230.046815 
L 118.684162 230.046815 
L 118.902417 230.182585 
L 119.775438 230.293031 
L 119.993693 230.51561 
L 120.321076 230.51561 
L 120.539331 230.630379 
L 120.866714 230.630379 
L 121.084969 230.774108 
L 121.412351 230.774108 
L 121.630607 230.892465 
L 121.957989 230.892465 
L 122.176244 231.093443 
L 122.503627 231.093443 
L 122.721882 231.244325 
L 123.049265 231.244325 
L 123.26752 231.366483 
L 123.594903 231.366483 
L 123.813158 231.491363 
L 124.140541 231.491363 
L 124.358796 231.700194 
L 124.686179 231.700194 
L 124.904434 231.827024 
L 125.231817 231.827024 
L 125.450072 231.955148 
L 125.777455 231.955148 
L 125.99571 227.759604 
L 126.323092 227.759604 
L 126.541348 227.947585 
L 127.414368 228.052487 
L 127.632623 228.158203 
L 128.505644 228.264633 
L 128.723899 228.455487 
L 129.59692 228.537809 
L 129.815175 228.643525 
L 130.142558 228.643525 
L 130.360813 228.830748 
L 131.233833 228.904739 
L 131.452089 229.085717 
L 132.325109 229.153577 
L 132.543364 229.328025 
L 132.870747 229.328025 
L 133.089002 229.473033 
L 133.962023 229.558742 
L 134.180278 229.69712 
L 134.507661 229.69712 
L 134.725916 229.861778 
L 135.598937 229.913461 
L 135.817192 230.046451 
L 136.144574 230.046451 
L 136.36283 230.202927 
L 136.690212 230.202927 
L 136.908468 230.330773 
L 137.23585 230.330773 
L 137.454105 230.457468 
L 137.781488 230.457468 
L 137.999743 230.581783 
L 138.872764 230.621819 
L 139.091019 230.771636 
L 139.418402 230.771636 
L 139.636657 230.891743 
L 139.96404 230.891743 
L 140.182295 231.009606 
L 140.509678 231.009606 
L 140.727933 231.126769 
L 141.055316 231.126769 
L 141.273571 231.242396 
L 141.600953 231.242396 
L 141.819209 231.356865 
L 142.146591 231.356865 
L 142.364846 231.469676 
L 142.692229 231.469676 
L 142.910484 231.581344 
L 143.237867 231.581344 
L 143.456122 231.774384 
L 144.329143 231.881822 
L 144.547398 231.993062 
L 145.420419 232.072483 
L 145.638674 232.180557 
L 146.511694 232.285623 
L 146.72995 232.391882 
L 147.057332 232.391882 
L 147.275587 232.577676 
L 148.148608 232.651895 
L 148.366863 232.755596 
L 149.239884 232.859076 
L 149.458139 233.042762 
L 150.33116 233.114352 
L 150.549415 233.216595 
L 150.876798 233.216595 
L 151.095053 233.398417 
L 151.968073 233.468642 
L 152.186328 233.569856 
L 152.513711 233.569856 
L 152.731966 233.750728 
L 153.604987 233.819402 
L 153.823242 233.920881 
L 154.150625 233.920881 
L 154.36888 234.069248 
L 155.351028 234.170805 
L 155.569283 234.318221 
L 156.333176 234.419936 
L 156.551432 234.600186 
L 157.424452 234.66821 
L 157.642707 234.73612 
L 157.97009 234.73612 
L 158.188345 234.916734 
L 158.515728 234.916734 
L 158.733983 242.03084 
L 159.061366 242.03084 
L 159.279621 242.305209 
L 159.607004 242.305209 
L 159.825259 242.465387 
L 160.152642 242.465387 
L 160.370897 242.744286 
L 160.69828 242.744286 
L 160.916535 242.905657 
L 161.243917 242.905657 
L 161.462173 243.066479 
L 161.789555 243.066479 
L 162.007811 243.346306 
L 162.335193 243.346306 
L 162.553448 243.507964 
L 162.880831 243.507964 
L 163.099086 243.733537 
L 163.426469 243.733537 
L 163.644724 243.955501 
L 163.972107 243.955501 
L 164.190362 244.121245 
L 164.517745 244.121245 
L 164.736 244.289062 
L 165.063383 244.289062 
L 165.281638 244.578086 
L 165.609021 244.578086 
L 165.827276 244.748939 
L 166.154659 244.748939 
L 166.372914 244.921193 
L 166.700296 244.921193 
L 166.918552 245.09474 
L 167.245934 245.09474 
L 167.464189 245.33146 
L 167.791572 245.33146 
L 168.009827 245.507008 
L 168.33721 245.507008 
L 168.555465 245.743806 
L 168.882848 245.743806 
L 169.101103 245.921648 
L 169.428486 245.921648 
L 169.646741 246.100154 
L 169.974124 246.100154 
L 170.192379 246.281075 
L 170.519762 246.281075 
L 170.738017 246.463518 
L 171.0654 246.463518 
L 171.283655 246.645318 
L 171.611037 246.645318 
L 171.829293 246.829291 
L 172.156675 246.829291 
L 172.37493 247.013549 
L 172.702313 247.013549 
L 172.920568 247.19825 
L 173.247951 247.19825 
L 173.466206 247.383644 
L 173.793589 247.383644 
L 174.011844 247.569903 
L 174.339227 247.569903 
L 174.557482 247.757191 
L 174.884865 247.757191 
L 175.10312 247.944886 
L 175.430503 247.944886 
L 175.648758 248.071281 
L 175.976141 248.071281 
L 176.194396 248.260741 
L 176.521778 248.260741 
L 176.740034 248.450522 
L 177.067416 248.450522 
L 177.285672 248.641076 
L 177.613054 248.641076 
L 177.831309 248.770229 
L 178.158692 248.770229 
L 178.376947 248.899782 
L 178.70433 248.899782 
L 178.922585 249.091178 
L 179.249968 249.091178 
L 179.468223 249.221396 
L 179.795606 249.221396 
L 180.013861 249.414743 
L 180.341244 249.414743 
L 180.559499 249.608104 
L 180.886882 249.608104 
L 181.105137 249.739436 
L 181.432519 249.739436 
L 181.650775 249.933191 
L 181.978157 249.933191 
L 182.196413 250.065109 
L 182.523795 250.065109 
L 182.74205 250.19632 
L 183.069433 250.19632 
L 183.287688 250.328802 
L 183.615071 250.328802 
L 183.833326 250.524272 
L 184.160709 250.524272 
L 184.378964 250.657662 
L 184.706347 250.657662 
L 184.924602 250.790902 
L 185.251985 250.790902 
L 185.47024 250.986757 
L 185.797623 250.986757 
L 186.015878 251.120783 
L 186.888898 251.191629 
L 187.107154 251.326134 
L 187.434536 251.326134 
L 187.652791 251.522582 
L 188.525812 251.625133 
L 188.853195 251.681989 
L 190.708364 251.756773 
L 191.035746 251.815794 
L 191.799639 251.873678 
L 192.127022 251.932735 
L 193.982191 252.007962 
L 194.309574 252.066318 
L 195.619105 252.162373 
L 195.946487 252.219708 
L 197.801656 252.27347 
L 198.129039 252.330983 
L 200.529846 252.420629 
L 200.857228 252.476392 
L 202.166759 252.57209 
L 202.60327 252.609353 
L 204.894949 252.698935 
L 205.331459 252.735962 
L 208.168776 252.837213 
L 208.605286 252.872275 
L 210.460455 252.971496 
L 211.006093 253.033639 
L 215.807707 253.129309 
L 216.353345 253.153253 
L 237.196712 253.469558 
L 252.365445 253.430108 
L 252.583701 253.349773 
L 258.9131 253.265972 
L 259.131355 253.183664 
L 264.369479 253.107744 
L 264.587734 253.007087 
L 269.28022 252.944179 
L 269.498475 252.844015 
L 274.736599 252.762786 
L 274.954854 252.661972 
L 280.192978 252.580536 
L 280.411233 252.480886 
L 285.103719 252.399215 
L 285.321974 252.300001 
L 290.560098 252.197079 
L 290.778353 252.096843 
L 294.925201 251.995421 
L 295.798222 251.930456 
L 296.016477 251.930456 
L 296.234732 251.817058 
L 297.65339 251.718974 
L 297.980773 251.669742 
L 298.744666 251.620224 
L 298.962921 251.507842 
L 300.38158 251.408814 
L 300.708963 251.359632 
L 300.927218 251.359632 
L 301.145473 251.247907 
L 301.472856 251.247907 
L 301.691111 251.135295 
L 303.109769 251.036517 
L 303.437152 250.987514 
L 304.201045 250.937468 
L 304.4193 250.825321 
L 304.746683 250.825321 
L 304.964938 250.713596 
L 306.383597 250.615075 
L 306.710979 250.565129 
L 306.929235 250.565129 
L 307.14749 250.452775 
L 308.02051 250.40345 
L 308.238765 250.291611 
L 309.657424 250.192461 
L 309.875679 250.080593 
L 310.7487 250.031447 
L 310.966955 249.919007 
L 311.839976 249.869875 
L 312.058231 249.757929 
L 313.476889 249.658458 
L 313.695144 249.546389 
L 314.568165 249.496886 
L 314.78642 249.384975 
L 315.659441 249.335543 
L 315.877696 249.223997 
L 317.296354 249.124411 
L 317.51461 248.950764 
L 318.933268 248.851007 
L 319.260651 248.801068 
L 319.478906 248.801068 
L 319.697161 248.68915 
L 320.024544 248.68915 
L 320.242799 248.577818 
L 321.11582 248.528236 
L 321.334075 248.416539 
L 322.752733 248.316668 
L 322.970989 248.143106 
L 324.389647 248.043385 
L 324.607902 247.931103 
L 325.480923 247.881349 
L 325.699178 247.770188 
L 326.026561 247.770188 
L 326.244816 247.658399 
L 327.663474 247.558056 
L 327.88173 247.445731 
L 328.75475 247.335406 
L 329.082133 247.285552 
L 329.300388 247.285552 
L 329.518643 247.17297 
L 330.391664 247.123095 
L 330.609919 247.010505 
L 331.48294 246.900309 
L 331.810322 246.85017 
L 332.028578 246.85017 
L 332.246833 246.737608 
L 333.119853 246.687598 
L 333.338108 246.574858 
L 334.211129 246.465512 
L 334.538512 246.415137 
L 334.756767 246.415137 
L 334.975022 246.30234 
L 335.848043 246.252058 
L 336.066298 246.139339 
L 336.939319 246.03025 
L 337.157574 245.917468 
L 338.030594 245.867393 
L 338.24885 245.754603 
L 339.12187 245.703921 
L 339.340125 245.532703 
L 340.213146 245.482185 
L 340.431401 245.369709 
L 341.304422 245.319034 
L 341.522677 245.206523 
L 342.395697 245.097741 
L 342.613953 244.984744 
L 343.486973 244.934241 
L 343.705228 244.821315 
L 344.578249 244.770947 
L 344.796504 244.599744 
L 345.669525 244.549611 
L 345.88778 244.436264 
L 346.760801 244.385625 
L 346.979056 244.272349 
L 347.852076 244.164546 
L 348.070332 244.051478 
L 348.943352 244.000517 
L 349.161607 243.887548 
L 349.48899 243.887548 
L 349.707245 243.774408 
L 350.580266 243.666984 
L 350.798521 243.553394 
L 351.671542 243.503055 
L 351.889797 243.389508 
L 352.762817 243.338668 
L 352.981073 243.168772 
L 353.308455 243.168772 
L 353.52671 243.055889 
L 354.399731 243.004864 
L 354.617986 242.891431 
L 354.945369 242.891431 
L 355.163624 242.778241 
L 356.036645 242.671196 
L 356.2549 242.558249 
L 357.127921 242.507052 
L 357.346176 242.396391 
L 358.219196 242.286638 
L 358.437451 242.180529 
L 359.310472 242.07292 
L 359.528727 241.967518 
L 360.401748 241.921173 
L 360.620003 241.817729 
L 360.947386 241.817729 
L 361.165641 241.655536 
L 362.038662 241.61102 
L 362.256917 241.511299 
L 363.129937 241.412085 
L 363.45732 241.370085 
L 363.675575 241.370085 
L 363.89383 241.21055 
L 364.766851 241.114851 
L 364.985106 241.019611 
L 365.858127 240.979696 
L 366.076382 240.886549 
L 366.403765 240.886549 
L 366.62202 240.730672 
L 367.49504 240.691344 
L 367.713296 240.601448 
L 368.586316 240.512245 
L 368.804571 240.423978 
L 369.677592 240.32057 
L 369.895847 240.233918 
L 370.768868 240.147894 
L 370.987123 240.062736 
L 371.860144 240.027488 
L 372.078399 239.876555 
L 372.951419 239.793347 
L 373.169675 239.71099 
L 374.042695 239.629889 
L 374.479206 239.596456 
L 374.588333 239.596456 
L 374.806588 239.448182 
L 375.679609 239.368197 
L 375.897864 239.289533 
L 377.316523 239.180309 
L 377.534778 239.033078 
L 378.407798 238.957566 
L 378.626053 238.881667 
L 379.499074 238.807069 
L 379.717329 238.732257 
L 380.59035 238.632186 
L 380.808605 238.558446 
L 381.681626 238.48597 
L 381.899881 238.413244 
L 382.772901 238.342533 
L 382.991157 238.199247 
L 383.864177 238.129065 
L 384.082432 238.058576 
L 385.501091 237.962534 
L 385.719346 237.821456 
L 386.592367 237.752789 
L 386.810622 237.686094 
L 387.683642 237.618813 
L 387.901898 237.552696 
L 388.22928 237.552696 
L 388.447536 237.412325 
L 389.320556 237.347559 
L 389.538811 237.282179 
L 390.411832 237.217928 
L 390.630087 237.153226 
L 390.95747 237.153226 
L 391.175725 237.015792 
L 392.594383 236.928439 
L 392.921766 236.865238 
L 393.685659 236.803131 
L 393.903914 236.666139 
L 394.776935 236.605282 
L 395.104318 236.543832 
L 395.868211 236.483396 
L 396.195594 236.423353 
L 396.413849 236.423353 
L 396.632104 236.287476 
L 397.505125 236.22787 
L 397.832507 236.169142 
L 398.487273 236.1107 
L 398.487273 236.1107 
" style="fill:none;stroke:#0000ff;stroke-linecap:square;stroke-width:1.5;"/>
   </g>
   <g id="line2d_34">
    <path clip-path="url(#p1c626d8885)" d="M 73.832727 53.568 
L 85.509378 53.568 
L 85.727633 217.986392 
L 398.487273 217.986392 
L 398.487273 217.986392 
" style="fill:none;stroke:#000000;stroke-linecap:square;stroke-width:1.5;"/>
   </g>
   <g id="line2d_35">
    <path clip-path="url(#p1c626d8885)" d="M 73.832727 251.937999 
L 398.487273 251.937999 
L 398.487273 251.937999 
" style="fill:none;stroke:#bf00bf;stroke-linecap:square;stroke-width:1.5;"/>
   </g>
   <g id="patch_3">
    <path d="M 57.6 307.584 
L 57.6 41.472 
" style="fill:none;stroke:#000000;stroke-linecap:square;stroke-linejoin:miter;stroke-width:0.8;"/>
   </g>
   <g id="patch_4">
    <path d="M 414.72 307.584 
L 414.72 41.472 
" style="fill:none;stroke:#000000;stroke-linecap:square;stroke-linejoin:miter;stroke-width:0.8;"/>
   </g>
   <g id="patch_5">
    <path d="M 57.6 307.584 
L 414.72 307.584 
" style="fill:none;stroke:#000000;stroke-linecap:square;stroke-linejoin:miter;stroke-width:0.8;"/>
   </g>
   <g id="patch_6">
    <path d="M 57.6 41.472 
L 414.72 41.472 
" style="fill:none;stroke:#000000;stroke-linecap:square;stroke-linejoin:miter;stroke-width:0.8;"/>
   </g>
   <g id="legend_1">
    <g id="patch_7">
     <path d="M 277.198125 122.862625 
L 407.72 122.862625 
Q 409.72 122.862625 409.72 120.862625 
L 409.72 48.472 
Q 409.72 46.472 407.72 46.472 
L 277.198125 46.472 
Q 275.198125 46.472 275.198125 48.472 
L 275.198125 120.862625 
Q 275.198125 122.862625 277.198125 122.862625 
z
" style="fill:#ffffff;opacity:0.8;stroke:#cccccc;stroke-linejoin:miter;"/>
    </g>
    <g id="line2d_36">
     <path d="M 279.198125 54.570438 
L 299.198125 54.570438 
" style="fill:none;stroke:#ff0000;stroke-linecap:square;stroke-width:1.5;"/>
    </g>
    <g id="line2d_37"/>
    <g id="text_18">
     <!-- speed -->
     <g transform="translate(307.198125 58.070438)scale(0.1 -0.1)">
      <use xlink:href="#DejaVuSans-73"/>
      <use x="52.099609" xlink:href="#DejaVuSans-70"/>
      <use x="115.576172" xlink:href="#DejaVuSans-65"/>
      <use x="177.099609" xlink:href="#DejaVuSans-65"/>
      <use x="238.623047" xlink:href="#DejaVuSans-64"/>
     </g>
    </g>
    <g id="line2d_38">
     <path d="M 279.198125 69.248563 
L 299.198125 69.248563 
" style="fill:none;stroke:#bfbf00;stroke-dasharray:5.55,2.4;stroke-dashoffset:0;stroke-width:1.5;"/>
    </g>
    <g id="line2d_39"/>
    <g id="text_19">
     <!-- pid speed -->
     <g transform="translate(307.198125 72.748563)scale(0.1 -0.1)">
      <use xlink:href="#DejaVuSans-70"/>
      <use x="63.476562" xlink:href="#DejaVuSans-69"/>
      <use x="91.259766" xlink:href="#DejaVuSans-64"/>
      <use x="154.736328" xlink:href="#DejaVuSans-20"/>
      <use x="186.523438" xlink:href="#DejaVuSans-73"/>
      <use x="238.623047" xlink:href="#DejaVuSans-70"/>
      <use x="302.099609" xlink:href="#DejaVuSans-65"/>
      <use x="363.623047" xlink:href="#DejaVuSans-65"/>
      <use x="425.146484" xlink:href="#DejaVuSans-64"/>
     </g>
    </g>
    <g id="line2d_40">
     <path d="M 279.198125 83.926688 
L 299.198125 83.926688 
" style="fill:none;stroke:#0000ff;stroke-linecap:square;stroke-width:1.5;"/>
    </g>
    <g id="line2d_41"/>
    <g id="text_20">
     <!-- Target (lead) speed -->
     <defs>
      <path d="M 34.28125 27.484375 
Q 23.390625 27.484375 19.1875 25 
Q 14.984375 22.515625 14.984375 16.5 
Q 14.984375 11.71875 18.140625 8.90625 
Q 21.296875 6.109375 26.703125 6.109375 
Q 34.1875 6.109375 38.703125 11.40625 
Q 43.21875 16.703125 43.21875 25.484375 
L 43.21875 27.484375 
z
M 52.203125 31.203125 
L 52.203125 0 
L 43.21875 0 
L 43.21875 8.296875 
Q 40.140625 3.328125 35.546875 0.953125 
Q 30.953125 -1.421875 24.3125 -1.421875 
Q 15.921875 -1.421875 10.953125 3.296875 
Q 6 8.015625 6 15.921875 
Q 6 25.140625 12.171875 29.828125 
Q 18.359375 34.515625 30.609375 34.515625 
L 43.21875 34.515625 
L 43.21875 35.40625 
Q 43.21875 41.609375 39.140625 45 
Q 35.0625 48.390625 27.6875 48.390625 
Q 23 48.390625 18.546875 47.265625 
Q 14.109375 46.140625 10.015625 43.890625 
L 10.015625 52.203125 
Q 14.9375 54.109375 19.578125 55.046875 
Q 24.21875 56 28.609375 56 
Q 40.484375 56 46.34375 49.84375 
Q 52.203125 43.703125 52.203125 31.203125 
z
" id="DejaVuSans-61"/>
      <path d="M 41.109375 46.296875 
Q 39.59375 47.171875 37.8125 47.578125 
Q 36.03125 48 33.890625 48 
Q 26.265625 48 22.1875 43.046875 
Q 18.109375 38.09375 18.109375 28.8125 
L 18.109375 0 
L 9.078125 0 
L 9.078125 54.6875 
L 18.109375 54.6875 
L 18.109375 46.1875 
Q 20.953125 51.171875 25.484375 53.578125 
Q 30.03125 56 36.53125 56 
Q 37.453125 56 38.578125 55.875 
Q 39.703125 55.765625 41.0625 55.515625 
z
" id="DejaVuSans-72"/>
      <path d="M 45.40625 27.984375 
Q 45.40625 37.75 41.375 43.109375 
Q 37.359375 48.484375 30.078125 48.484375 
Q 22.859375 48.484375 18.828125 43.109375 
Q 14.796875 37.75 14.796875 27.984375 
Q 14.796875 18.265625 18.828125 12.890625 
Q 22.859375 7.515625 30.078125 7.515625 
Q 37.359375 7.515625 41.375 12.890625 
Q 45.40625 18.265625 45.40625 27.984375 
z
M 54.390625 6.78125 
Q 54.390625 -7.171875 48.1875 -13.984375 
Q 42 -20.796875 29.203125 -20.796875 
Q 24.46875 -20.796875 20.265625 -20.09375 
Q 16.0625 -19.390625 12.109375 -17.921875 
L 12.109375 -9.1875 
Q 16.0625 -11.328125 19.921875 -12.34375 
Q 23.78125 -13.375 27.78125 -13.375 
Q 36.625 -13.375 41.015625 -8.765625 
Q 45.40625 -4.15625 45.40625 5.171875 
L 45.40625 9.625 
Q 42.625 4.78125 38.28125 2.390625 
Q 33.9375 0 27.875 0 
Q 17.828125 0 11.671875 7.65625 
Q 5.515625 15.328125 5.515625 27.984375 
Q 5.515625 40.671875 11.671875 48.328125 
Q 17.828125 56 27.875 56 
Q 33.9375 56 38.28125 53.609375 
Q 42.625 51.21875 45.40625 46.390625 
L 45.40625 54.6875 
L 54.390625 54.6875 
z
" id="DejaVuSans-67"/>
      <path d="M 18.3125 70.21875 
L 18.3125 54.6875 
L 36.8125 54.6875 
L 36.8125 47.703125 
L 18.3125 47.703125 
L 18.3125 18.015625 
Q 18.3125 11.328125 20.140625 9.421875 
Q 21.96875 7.515625 27.59375 7.515625 
L 36.8125 7.515625 
L 36.8125 0 
L 27.59375 0 
Q 17.1875 0 13.234375 3.875 
Q 9.28125 7.765625 9.28125 18.015625 
L 9.28125 47.703125 
L 2.6875 47.703125 
L 2.6875 54.6875 
L 9.28125 54.6875 
L 9.28125 70.21875 
z
" id="DejaVuSans-74"/>
      <path d="M 31 75.875 
Q 24.46875 64.65625 21.28125 53.65625 
Q 18.109375 42.671875 18.109375 31.390625 
Q 18.109375 20.125 21.3125 9.0625 
Q 24.515625 -2 31 -13.1875 
L 23.1875 -13.1875 
Q 15.875 -1.703125 12.234375 9.375 
Q 8.59375 20.453125 8.59375 31.390625 
Q 8.59375 42.28125 12.203125 53.3125 
Q 15.828125 64.359375 23.1875 75.875 
z
" id="DejaVuSans-28"/>
      <path d="M 9.421875 75.984375 
L 18.40625 75.984375 
L 18.40625 0 
L 9.421875 0 
z
" id="DejaVuSans-6c"/>
      <path d="M 8.015625 75.875 
L 15.828125 75.875 
Q 23.140625 64.359375 26.78125 53.3125 
Q 30.421875 42.28125 30.421875 31.390625 
Q 30.421875 20.453125 26.78125 9.375 
Q 23.140625 -1.703125 15.828125 -13.1875 
L 8.015625 -13.1875 
Q 14.5 -2 17.703125 9.0625 
Q 20.90625 20.125 20.90625 31.390625 
Q 20.90625 42.671875 17.703125 53.65625 
Q 14.5 64.65625 8.015625 75.875 
z
" id="DejaVuSans-29"/>
     </defs>
     <g transform="translate(307.198125 87.426688)scale(0.1 -0.1)">
      <use xlink:href="#DejaVuSans-54"/>
      <use x="60.833984" xlink:href="#DejaVuSans-61"/>
      <use x="122.113281" xlink:href="#DejaVuSans-72"/>
      <use x="163.210938" xlink:href="#DejaVuSans-67"/>
      <use x="226.6875" xlink:href="#DejaVuSans-65"/>
      <use x="288.210938" xlink:href="#DejaVuSans-74"/>
      <use x="327.419922" xlink:href="#DejaVuSans-20"/>
      <use x="359.207031" xlink:href="#DejaVuSans-28"/>
      <use x="398.220703" xlink:href="#DejaVuSans-6c"/>
      <use x="426.003906" xlink:href="#DejaVuSans-65"/>
      <use x="487.527344" xlink:href="#DejaVuSans-61"/>
      <use x="548.806641" xlink:href="#DejaVuSans-64"/>
      <use x="612.283203" xlink:href="#DejaVuSans-29"/>
      <use x="651.296875" xlink:href="#DejaVuSans-20"/>
      <use x="683.083984" xlink:href="#DejaVuSans-73"/>
      <use x="735.183594" xlink:href="#DejaVuSans-70"/>
      <use x="798.660156" xlink:href="#DejaVuSans-65"/>
      <use x="860.183594" xlink:href="#DejaVuSans-65"/>
      <use x="921.707031" xlink:href="#DejaVuSans-64"/>
     </g>
    </g>
    <g id="line2d_42">
     <path d="M 279.198125 98.604813 
L 299.198125 98.604813 
" style="fill:none;stroke:#000000;stroke-linecap:square;stroke-width:1.5;"/>
    </g>
    <g id="line2d_43"/>
    <g id="text_21">
     <!-- Cruise speed -->
     <defs>
      <path d="M 64.40625 67.28125 
L 64.40625 56.890625 
Q 59.421875 61.53125 53.78125 63.8125 
Q 48.140625 66.109375 41.796875 66.109375 
Q 29.296875 66.109375 22.65625 58.46875 
Q 16.015625 50.828125 16.015625 36.375 
Q 16.015625 21.96875 22.65625 14.328125 
Q 29.296875 6.6875 41.796875 6.6875 
Q 48.140625 6.6875 53.78125 8.984375 
Q 59.421875 11.28125 64.40625 15.921875 
L 64.40625 5.609375 
Q 59.234375 2.09375 53.4375 0.328125 
Q 47.65625 -1.421875 41.21875 -1.421875 
Q 24.65625 -1.421875 15.125 8.703125 
Q 5.609375 18.84375 5.609375 36.375 
Q 5.609375 53.953125 15.125 64.078125 
Q 24.65625 74.21875 41.21875 74.21875 
Q 47.75 74.21875 53.53125 72.484375 
Q 59.328125 70.75 64.40625 67.28125 
z
" id="DejaVuSans-43"/>
      <path d="M 8.5 21.578125 
L 8.5 54.6875 
L 17.484375 54.6875 
L 17.484375 21.921875 
Q 17.484375 14.15625 20.5 10.265625 
Q 23.53125 6.390625 29.59375 6.390625 
Q 36.859375 6.390625 41.078125 11.03125 
Q 45.3125 15.671875 45.3125 23.6875 
L 45.3125 54.6875 
L 54.296875 54.6875 
L 54.296875 0 
L 45.3125 0 
L 45.3125 8.40625 
Q 42.046875 3.421875 37.71875 1 
Q 33.40625 -1.421875 27.6875 -1.421875 
Q 18.265625 -1.421875 13.375 4.4375 
Q 8.5 10.296875 8.5 21.578125 
z
M 31.109375 56 
z
" id="DejaVuSans-75"/>
     </defs>
     <g transform="translate(307.198125 102.104813)scale(0.1 -0.1)">
      <use xlink:href="#DejaVuSans-43"/>
      <use x="69.824219" xlink:href="#DejaVuSans-72"/>
      <use x="110.9375" xlink:href="#DejaVuSans-75"/>
      <use x="174.316406" xlink:href="#DejaVuSans-69"/>
      <use x="202.099609" xlink:href="#DejaVuSans-73"/>
      <use x="254.199219" xlink:href="#DejaVuSans-65"/>
      <use x="315.722656" xlink:href="#DejaVuSans-20"/>
      <use x="347.509766" xlink:href="#DejaVuSans-73"/>
      <use x="399.609375" xlink:href="#DejaVuSans-70"/>
      <use x="463.085938" xlink:href="#DejaVuSans-65"/>
      <use x="524.609375" xlink:href="#DejaVuSans-65"/>
      <use x="586.132812" xlink:href="#DejaVuSans-64"/>
     </g>
    </g>
    <g id="line2d_44">
     <path d="M 279.198125 113.282938 
L 299.198125 113.282938 
" style="fill:none;stroke:#bf00bf;stroke-linecap:square;stroke-width:1.5;"/>
    </g>
    <g id="line2d_45"/>
    <g id="text_22">
     <!-- Lead speed -->
     <defs>
      <path d="M 9.8125 72.90625 
L 19.671875 72.90625 
L 19.671875 8.296875 
L 55.171875 8.296875 
L 55.171875 0 
L 9.8125 0 
z
" id="DejaVuSans-4c"/>
     </defs>
     <g transform="translate(307.198125 116.782938)scale(0.1 -0.1)">
      <use xlink:href="#DejaVuSans-4c"/>
      <use x="55.697266" xlink:href="#DejaVuSans-65"/>
      <use x="117.220703" xlink:href="#DejaVuSans-61"/>
      <use x="178.5" xlink:href="#DejaVuSans-64"/>
      <use x="241.976562" xlink:href="#DejaVuSans-20"/>
      <use x="273.763672" xlink:href="#DejaVuSans-73"/>
      <use x="325.863281" xlink:href="#DejaVuSans-70"/>
      <use x="389.339844" xlink:href="#DejaVuSans-65"/>
      <use x="450.863281" xlink:href="#DejaVuSans-65"/>
      <use x="512.386719" xlink:href="#DejaVuSans-64"/>
     </g>
    </g>
   </g>
  </g>
 </g>
 <defs>
  <clipPath id="p1c626d8885">
   <rect height="266.112" width="357.12" x="57.6" y="41.472"/>
  </clipPath>
 </defs>
</svg>
